<?xml version="1.0" standalone="no"?>
<!DOCTYPE svg PUBLIC "-//W3C//DTD SVG 20010904//EN"
 "http://www.w3.org/TR/2001/REC-SVG-20010904/DTD/svg10.dtd">
<svg version="1.0" xmlns="http://www.w3.org/2000/svg"
 width="880.000000pt" height="440.000000pt" viewBox="0 0 880.000000 440.000000"
 preserveAspectRatio="xMidYMid meet">

<g transform="translate(0.000000,440.000000) scale(0.100000,-0.100000)"
fill="#000000" stroke="none">
<path d="M4400 3015 l0 -1384 38 -6 c58 -10 61 -13 10 -14 -44 -1 -48 -3 -48
-26 0 -24 3 -25 58 -27 l57 -1 -55 -6 c-45 -5 -55 -10 -57 -26 -2 -11 0 -14 3
-7 7 16 25 16 22 0 -2 -8 14 -15 42 -19 25 -3 37 -7 27 -7 -12 -1 -15 -6 -10
-14 4 -7 9 -21 10 -32 3 -16 -1 -18 -31 -13 -25 4 -36 1 -40 -10 -9 -22 -7
-30 3 -14 8 12 12 12 26 -2 9 -10 20 -15 25 -12 13 8 22 -13 15 -35 -4 -11
-14 -20 -23 -20 -10 0 -28 -7 -41 -16 -21 -15 -23 -22 -17 -75 4 -36 3 -60 -4
-64 -6 -4 -10 -120 -10 -341 l0 -334 38 -1 37 -2 -40 -7 -40 -6 35 -6 35 -5
-35 -2 c-33 -3 -33 -4 -10 -11 24 -8 24 -8 3 -9 l-23 -1 0 -230 0 -230 2200 0
2200 0 0 576 0 577 -54 -7 c-40 -4 -57 -2 -65 8 -10 12 -1 15 53 21 l66 7 0
68 0 68 -40 4 c-22 2 -40 1 -40 -2 0 -6 -127 -30 -160 -30 -11 0 -20 6 -20 14
0 14 119 31 213 30 l47 -1 0 313 c0 276 -2 314 -15 314 -24 0 -87 35 -112 62
-29 31 -53 90 -53 131 0 58 63 125 138 149 l42 13 0 1042 0 1043 -203 0 -203
0 1 -27 c0 -19 -6 -29 -19 -31 -16 -3 -18 0 -13 27 l7 31 -910 0 c-905 0 -910
0 -898 -20 10 -16 10 -23 -4 -36 -16 -16 -17 -15 -23 9 -4 14 -4 31 0 36 4 8
-103 11 -354 11 l-360 0 -7 -22 c-5 -13 -7 -27 -6 -31 2 -5 -7 -11 -18 -14
-11 -3 -18 -8 -16 -12 2 -3 -19 -6 -47 -6 l-52 0 0 40 0 40 -382 3 -383 2 -1
-27 -1 -28 -7 30 c-7 29 -7 28 -15 -15 l-7 -45 -25 28 c-13 15 -24 35 -24 43
0 12 -34 14 -215 14 l-215 0 0 -1385z m1142 1293 c7 -21 -4 -59 -16 -55 -18 6
-20 67 -2 67 8 0 16 -5 18 -12z m181 -95 c-13 -2 -35 -2 -50 0 -16 2 -5 4 22
4 28 0 40 -2 28 -4z m1501 -99 c9 -3 16 -14 16 -24 0 -14 -10 -19 -45 -22 -25
-2 -45 0 -45 4 0 5 5 8 10 8 6 0 10 9 10 20 0 20 22 26 54 14z m56 -25 c0 -10
-7 -19 -15 -19 -9 0 -15 9 -15 25 0 18 4 23 15 19 8 -4 15 -15 15 -25z m-477
-26 c-13 -2 -35 -2 -50 0 -16 2 -5 4 22 4 28 0 40 -2 28 -4z m435 -48 c-2 -3
-20 -7 -39 -10 l-34 -5 35 14 c32 12 50 13 38 1z m37 5 c3 -5 1 -10 -4 -10 -6
0 -11 5 -11 10 0 6 2 10 4 10 3 0 8 -4 11 -10z m-382 -17 c-7 -2 -19 -2 -25 0
-7 3 -2 5 12 5 14 0 19 -2 13 -5z m-708 -23 c8 -24 -1 -40 -21 -40 -9 0 -14
11 -14 30 0 35 25 42 35 10z m1055 10 c0 -5 -2 -10 -4 -10 -3 0 -8 5 -11 10
-3 6 -1 10 4 10 6 0 11 -4 11 -10z m30 1 c0 -6 -4 -13 -10 -16 -5 -3 -10 1
-10 9 0 9 5 16 10 16 6 0 10 -4 10 -9z m-80 -20 c0 -5 8 -12 18 -14 11 -3 8
-5 -9 -6 -17 -1 -26 4 -26 14 0 8 4 15 9 15 4 0 8 -4 8 -9z m-37 -18 c-7 -2
-19 -2 -25 0 -7 3 -2 5 12 5 14 0 19 -2 13 -5z m-66 -9 c-3 -3 -12 -4 -19 -1
-8 3 -5 6 6 6 11 1 17 -2 13 -5z m-629 -11 c-10 -2 -26 -2 -35 0 -10 3 -2 5
17 5 19 0 27 -2 18 -5z m752 -3 c0 -5 -2 -10 -4 -10 -3 0 -8 5 -11 10 -3 6 -1
10 4 10 6 0 11 -4 11 -10z m-83 -6 c-3 -3 -12 -4 -19 -1 -8 3 -5 6 6 6 11 1
17 -2 13 -5z m-40 -24 c-1 -18 -8 -20 -62 -18 l-60 2 50 3 c30 3 53 10 58 19
11 20 16 18 14 -6z m120 -6 c-3 -3 -12 -4 -19 -1 -8 3 -5 6 6 6 11 1 17 -2 13
-5z m-744 -21 c-7 -2 -19 -2 -25 0 -7 3 -2 5 12 5 14 0 19 -2 13 -5z m741 1
c8 -3 12 -12 10 -19 -3 -7 3 -15 13 -18 10 -3 3 -5 -16 -6 -29 -1 -32 1 -21
14 9 10 9 15 1 15 -6 0 -11 5 -11 10 0 12 3 12 24 4z m70 -21 c2 -10 -2 -21
-8 -25 -8 -5 -7 -8 2 -8 6 0 12 -8 12 -17 -1 -16 -2 -16 -15 1 -16 21 -20 58
-8 69 8 9 14 3 17 -20z m-334 -38 c0 -18 -4 -23 -15 -19 -15 6 -20 35 -9 47
12 11 24 -3 24 -28z m-280 15 c0 -5 -12 -10 -27 -9 l-28 1 25 8 c14 4 26 8 28
9 1 1 2 -3 2 -9z m-175 -10 c-3 -5 -12 -10 -18 -10 -7 0 -6 4 3 10 19 12 23
12 15 0z m228 3 c-7 -2 -21 -2 -30 0 -10 3 -4 5 12 5 17 0 24 -2 18 -5z m295
0 c-10 -2 -28 -2 -40 0 -13 2 -5 4 17 4 22 1 32 -1 23 -4z m232 -28 c0 -17 -8
-29 -22 -36 l-23 -10 22 5 c19 3 22 0 21 -20 -3 -33 -29 -27 -47 11 -10 22
-11 30 -2 33 9 3 9 8 -1 20 -11 13 -10 15 9 10 13 -4 26 -2 29 3 9 15 14 10
14 -16z m-550 5 c8 -5 13 -10 10 -11 -37 -6 -80 -8 -80 -4 0 5 37 23 50 24 3
0 12 -4 20 -9z m293 -4 c4 -10 0 -12 -14 -9 -10 3 -16 9 -13 14 8 13 21 11 27
-5z m-1733 -56 c0 -10 -5 -22 -12 -26 -6 -4 -8 -3 -4 4 3 5 1 12 -6 14 -7 3
-9 12 -5 22 8 21 27 12 27 -14z m2020 16 c0 -3 -4 -8 -10 -11 -5 -3 -10 -1
-10 4 0 6 5 11 10 11 6 0 10 -2 10 -4z m-701 -52 c14 -12 -19 -1 -35 12 -18
14 -18 14 6 3 14 -6 27 -13 29 -15z m661 -13 c0 -6 -5 -13 -12 -17 -8 -5 -6
-10 8 -15 14 -5 8 -8 -21 -8 -24 0 -35 3 -27 7 7 5 10 16 6 25 -5 13 0 17 20
17 14 0 26 -4 26 -9z m-670 -16 c10 -12 8 -14 -8 -10 -12 2 -26 -3 -33 -11 -6
-8 -16 -14 -22 -14 -5 0 2 11 17 25 32 29 30 29 46 10z m1579 -86 c1 -15 -6
-32 -14 -39 -12 -10 -17 -7 -26 16 -9 24 -7 35 8 63 17 33 18 33 24 10 4 -13
7 -36 8 -50z m-1576 54 c-7 -2 -19 -2 -25 0 -7 3 -2 5 12 5 14 0 19 -2 13 -5z
m-9 -25 c-3 -4 -11 -5 -19 -1 -21 7 -19 12 4 10 11 0 18 -5 15 -9z m636 -28
c-20 -13 -40 -13 -40 0 0 6 12 10 28 10 21 0 24 -2 12 -10z m-663 -6 c-3 -3
-12 -4 -19 -1 -8 3 -5 6 6 6 11 1 17 -2 13 -5z m40 0 c-3 -3 -12 -4 -19 -1 -8
3 -5 6 6 6 11 1 17 -2 13 -5z m647 -16 c-4 -6 1 -17 11 -25 18 -12 18 -13 -4
-13 -14 0 -25 7 -28 19 -3 13 -11 17 -26 15 -21 -4 -21 -4 -2 5 29 14 58 13
49 -1z m-639 -7 c3 -5 1 -12 -4 -15 -5 -4 -12 -2 -16 4 -4 6 -11 7 -17 4 -7
-4 -8 -2 -4 4 9 14 33 16 41 3z m165 -1 c0 -5 -4 -10 -10 -10 -5 0 -10 5 -10
10 0 6 5 10 10 10 6 0 10 -4 10 -10z m167 -18 c3 -25 -21 -31 -34 -8 -4 7 -27
16 -50 20 -37 5 -42 4 -36 -11 4 -10 2 -14 -4 -10 -6 4 -13 1 -16 -5 -2 -7 -8
-10 -12 -6 -4 4 -2 15 6 25 9 11 10 14 2 9 -7 -4 -13 -2 -13 3 0 7 28 10 77 7
69 -2 77 -5 80 -24z m43 -12 c-22 -14 -30 -12 -30 8 0 28 12 34 29 17 14 -14
14 -17 1 -25z m180 20 c-12 -8 -11 -10 5 -11 11 0 14 -3 7 -6 -7 -3 -20 -2
-29 1 -14 6 -14 8 3 20 10 8 21 12 24 10 2 -3 -2 -9 -10 -14z m1450 -15 c0
-24 -5 -35 -15 -35 -10 0 -15 11 -15 35 0 24 5 35 15 35 10 0 15 -11 15 -35z
m-1895 10 l-30 -13 43 3 c23 2 42 0 42 -4 0 -4 -22 -8 -50 -10 -27 -1 -50 0
-50 3 0 23 16 36 44 36 l31 -1 -30 -14z m385 -2 c0 -17 -46 -29 -68 -20 -35
16 -26 27 23 27 25 0 45 -3 45 -7z m-243 -9 c-3 -3 -12 -4 -19 -1 -8 3 -5 6 6
6 11 1 17 -2 13 -5z m-264 -11 c-13 -2 -33 -2 -45 0 -13 2 -3 4 22 4 25 0 35
-2 23 -4z m539 -33 c-2 -16 -10 -30 -16 -30 -8 0 -11 11 -8 30 2 17 10 30 16
30 8 0 11 -11 8 -30z m-525 14 c-10 -10 -67 -12 -67 -3 0 5 17 9 37 9 20 0 34
-3 30 -6z m-2132 -122 c0 -18 -20 -15 -23 4 -3 10 1 15 10 12 7 -3 13 -10 13
-16z m2812 -64 c-3 -8 -6 -5 -6 6 -1 11 2 17 5 13 3 -3 4 -12 1 -19z m-2 -28
c-3 -5 -2 -10 3 -10 16 0 23 -30 11 -51 -12 -23 -44 -22 -43 1 1 30 16 70 26
70 5 0 6 -4 3 -10z m-1902 -77 c-7 -2 -19 -2 -25 0 -7 3 -2 5 12 5 14 0 19 -2
13 -5z m2880 -28 c-3 -9 -8 -14 -10 -11 -3 3 -2 9 2 15 9 16 15 13 8 -4z
m-3525 -50 c-1 -14 -6 -25 -10 -25 -10 0 -20 38 -13 50 10 17 25 1 23 -25z
m3539 9 c4 -10 0 -22 -10 -29 -9 -7 -14 -15 -10 -19 4 -4 0 -4 -10 0 -17 6
-24 44 -10 57 12 13 34 7 40 -9z m-1032 -53 l40 -9 -34 -1 c-25 -1 -32 -5 -27
-16 4 -10 -1 -15 -14 -15 -11 0 -20 7 -20 15 0 8 -4 15 -10 15 -5 0 -10 5 -10
10 0 12 20 12 75 1z m95 -13 c0 -6 -7 -7 -16 -4 -9 3 -20 6 -25 6 -6 0 -8 4
-5 9 8 12 46 2 46 -11z m-750 -3 c-6 -8 -9 -19 -5 -25 3 -5 2 -10 -4 -10 -5 0
-9 -9 -8 -20 1 -11 4 -20 7 -20 3 0 7 -16 8 -35 2 -28 -1 -35 -15 -35 -16 0
-18 10 -18 76 l1 76 -36 -5 c-19 -3 -42 -8 -51 -11 -10 -5 -16 -2 -16 9 0 12
14 15 75 15 64 0 73 -2 62 -15z m90 5 c0 -13 -11 -13 -30 0 -12 8 -11 10 8 10
12 0 22 -4 22 -10z m188 -1 c-9 -5 -15 -16 -12 -24 4 -10 0 -12 -15 -8 -12 3
-21 11 -21 18 0 8 -8 16 -17 18 -10 3 5 5 32 6 38 0 46 -2 33 -10z m155 -1
c-15 -7 -30 -7 -50 0 -26 10 -24 10 22 11 42 0 46 -2 28 -11z m-17 -49 c0 -14
3 -30 8 -37 4 -6 3 -12 -2 -12 -5 0 -7 -11 -4 -25 3 -18 0 -25 -12 -25 -11 0
-16 9 -16 26 0 17 -4 23 -12 18 -10 -6 -10 -4 0 7 6 7 12 21 12 31 0 10 6 18
13 19 10 0 10 2 0 6 -7 2 -13 9 -13 15 0 22 25 -1 26 -23z m-161 -9 c3 -11 4
-24 1 -28 -3 -5 21 -7 52 -4 63 5 68 -4 6 -14 -49 -8 -57 -12 -50 -30 3 -9 -1
-14 -13 -14 -14 0 -18 10 -20 55 -2 54 12 74 24 35z m383 -10 c2 -23 -1 -28
-13 -24 -18 7 -20 54 -2 54 7 0 14 -13 15 -30z m-1 -84 c1 -26 8 -55 14 -62 9
-12 5 -14 -26 -14 -35 0 -36 1 -31 28 4 15 7 44 8 65 1 29 5 37 17 35 12 -2
17 -17 18 -52z m72 32 c-1 -16 -3 -18 -6 -6 -2 9 -14 19 -26 21 -18 4 -17 5 6
6 22 1 27 -3 26 -21z m-711 -63 c1 -19 -3 -25 -18 -25 -15 0 -20 7 -20 25 0
17 5 25 18 25 12 0 18 -8 20 -25z m262 0 c0 -18 -5 -25 -19 -25 -14 0 -17 6
-13 25 2 14 11 25 18 25 8 0 14 -10 14 -25z m168 19 c-4 -3 -2 -19 2 -36 9
-29 8 -30 -18 -23 -35 9 -34 8 -23 39 6 14 18 26 27 26 10 0 15 -3 12 -6z
m321 -48 c-9 -8 -10 -7 -5 7 3 10 7 24 7 30 1 7 3 4 6 -7 3 -10 -1 -23 -8 -30z
m-39 -6 c13 -9 13 -10 0 -10 -8 0 -22 5 -30 10 -13 9 -13 10 0 10 8 0 22 -5
30 -10z m-737 -7 c-7 -2 -21 -2 -30 0 -10 3 -4 5 12 5 17 0 24 -2 18 -5z m284
1 c-3 -3 -12 -4 -19 -1 -8 3 -5 6 6 6 11 1 17 -2 13 -5z m-1907 -246 c0 -16
-4 -28 -10 -28 -5 0 -13 0 -17 -1 -17 -1 -21 40 -6 61 18 26 33 12 33 -32z
m710 43 c0 -11 -26 -22 -34 -14 -12 12 -5 23 14 23 11 0 20 -4 20 -9z m276 -2
c3 -6 0 -15 -7 -20 -8 -5 -9 -9 -4 -9 9 0 12 -45 7 -87 -3 -24 -28 -13 -30 12
-1 14 4 25 11 25 8 0 8 3 -2 9 -8 5 -12 18 -8 30 3 12 -1 28 -10 36 -13 13
-12 15 11 15 14 0 28 -5 32 -11z m152 -5 c-9 -9 -21 -13 -27 -10 -20 13 -11
26 16 26 25 0 26 -1 11 -16z m202 1 c10 -13 9 -15 -11 -16 -24 -2 -24 -2 -1
-6 22 -4 49 -39 38 -50 -3 -3 2 -12 10 -20 8 -9 13 -21 11 -27 -4 -10 23 -45
30 -38 2 1 3 0 3 -3 0 -3 0 -9 0 -15 0 -5 -8 -10 -19 -10 -13 0 -25 15 -40 49
-11 27 -21 54 -21 60 0 6 -9 15 -20 21 -11 6 -20 17 -20 25 0 7 -7 21 -16 29
-14 15 -13 16 14 16 16 0 35 -7 42 -15z m172 -12 c-10 -4 -10 -8 0 -21 8 -10
9 -13 1 -9 -6 4 -13 1 -15 -7 -2 -12 -6 -13 -21 -2 -17 13 -16 15 5 39 16 18
26 23 33 15 7 -7 6 -12 -3 -15z m233 17 c-3 -5 -19 -10 -35 -10 -16 0 -32 5
-35 10 -4 6 10 10 35 10 25 0 39 -4 35 -10z m177 -1 c30 -16 68 -63 57 -70 -5
-3 1 -10 14 -16 30 -14 43 -53 19 -53 -10 1 -32 22 -51 47 -19 26 -36 42 -39
35 -6 -19 -22 -14 -22 8 0 11 6 20 13 21 6 0 2 5 -10 11 -24 11 -31 28 -12 28
6 0 20 -5 31 -11z m158 -11 c0 -6 -6 -5 -15 2 -8 7 -15 14 -15 16 0 2 7 1 15
-2 8 -4 15 -11 15 -16z m327 7 c0 -12 -7 -14 -31 -9 -52 12 -76 13 -82 3 -9
-15 -34 -10 -34 6 0 12 15 15 73 15 60 0 74 -3 74 -15z m188 5 c-3 -5 0 -10 7
-10 9 0 9 -3 -2 -10 -8 -5 -10 -10 -4 -10 5 0 10 -11 10 -25 0 -17 -5 -25 -18
-25 -14 0 -18 8 -18 35 0 22 -6 38 -17 44 -15 9 -12 10 15 11 20 0 31 -4 27
-10z m90 0 c4 -6 -9 -10 -32 -10 -28 0 -34 3 -23 10 20 13 47 13 55 0z m219 1
c3 -5 -1 -11 -9 -15 -18 -6 -45 2 -45 15 0 12 47 12 54 0z m321 -11 c-3 -5
-14 -10 -23 -10 -15 0 -15 2 -2 10 20 13 33 13 25 0z m95 0 c0 -5 -8 -10 -17
-10 -15 0 -16 2 -3 10 19 12 20 12 20 0z m-2609 -32 c1 -13 1 -27 -1 -33 -4
-20 -1 -117 3 -122 3 -2 33 -4 66 -4 34 0 61 -4 61 -10 0 -5 -43 -9 -97 -9
-81 0 -94 2 -79 13 13 10 17 27 17 70 0 33 5 57 11 57 7 0 7 5 1 13 -8 10 -9
22 -4 42 4 15 21 2 22 -17z m1009 -3 c0 -16 -6 -25 -15 -25 -28 0 -18 40 13
49 1 1 2 -10 2 -24z m-590 -1 c0 -8 -4 -12 -10 -9 -5 3 -10 10 -10 16 0 5 5 9
10 9 6 0 10 -7 10 -16z m1168 -16 c-3 -32 -1 -33 32 -33 31 -1 35 -4 37 -30 1
-17 0 -23 -4 -15 -12 31 -63 43 -63 15 0 -8 -9 -15 -20 -15 -17 0 -19 7 -18
55 2 47 5 55 21 55 15 0 18 -6 15 -32z m610 7 c1 -16 -3 -25 -13 -25 -9 0 -15
10 -15 25 0 14 6 25 13 25 7 0 14 -11 15 -25z m112 0 c0 -14 -4 -25 -9 -25 -5
0 -11 11 -13 25 -4 17 -1 25 8 25 8 0 14 -11 14 -25z m596 -32 c-11 -12 -27
13 -20 32 7 17 8 17 17 -3 6 -12 7 -25 3 -29z m-2159 -5 c-7 -17 -18 -33 -24
-35 -7 -3 -5 10 5 31 20 45 37 48 19 4z m913 22 c0 -5 -5 -10 -11 -10 -5 0 -7
5 -4 10 3 6 8 10 11 10 2 0 4 -4 4 -10z m-645 -20 c3 -5 1 -10 -6 -10 -7 0 -8
-4 -2 -12 15 -21 16 -78 1 -78 -7 -1 -2 -7 11 -14 20 -11 21 -14 6 -19 -26
-10 -75 -8 -75 3 0 6 7 10 15 10 12 0 15 14 15 65 0 50 3 65 14 65 8 0 18 -4
21 -10z m195 -45 c0 -30 -4 -55 -8 -55 -5 0 -10 25 -11 55 -1 33 2 55 8 55 7
0 11 -23 11 -55z m-608 -17 c2 -21 0 -38 -4 -38 -4 0 -7 24 -7 53 1 54 5 49
11 -15z m765 25 c-3 -10 -5 -4 -5 12 0 17 2 24 5 18 2 -7 2 -21 0 -30z m602 7
c0 -17 -3 -20 -7 -10 -9 19 -48 25 -58 8 -5 -7 -8 -26 -9 -43 0 -20 -6 -31
-17 -33 -14 -3 -18 3 -18 22 0 14 6 26 13 27 10 0 10 2 0 6 -7 2 -13 15 -13
27 0 20 5 22 55 21 52 0 55 -1 54 -25z m231 5 c0 -16 -6 -25 -15 -25 -9 0 -15
9 -15 25 0 16 6 25 15 25 9 0 15 -9 15 -25z m85 -1 c-22 -20 -33 -24 -54 -18
-25 7 -25 8 12 17 20 6 37 14 37 19 0 4 7 8 16 8 13 0 10 -6 -11 -26z m295 6
c14 -10 21 -22 16 -27 -5 -4 -11 -2 -14 6 -3 10 -6 10 -12 1 -6 -9 -18 -6 -46
14 l-39 26 35 0 c19 0 46 -9 60 -20z m-1780 -20 c-11 -7 -12 -10 -2 -10 19 0
11 -44 -8 -48 -12 -2 -16 7 -17 33 0 29 3 35 21 35 17 0 18 -2 6 -10z m-518
-35 c4 -19 1 -25 -13 -25 -11 0 -19 4 -19 9 0 5 -3 16 -6 25 -4 11 0 16 14 16
13 0 21 -8 24 -25z m128 -5 c0 -11 -4 -20 -9 -20 -5 0 -7 9 -4 20 3 11 7 20 9
20 2 0 4 -9 4 -20z m937 14 c18 -5 22 -13 21 -40 -1 -38 3 -39 -52 24 -20 24
-13 28 31 16z m241 -24 l-5 -30 64 0 c35 0 63 -4 63 -10 0 -6 -37 -10 -92 -10
-72 0 -89 3 -80 12 7 7 12 25 12 40 0 22 5 28 21 28 18 0 21 -5 17 -30z m612
5 c0 -18 -5 -25 -19 -25 -14 0 -17 6 -13 25 2 14 11 25 18 25 8 0 14 -10 14
-25z m90 10 c7 -8 9 -15 4 -15 -5 0 -2 -5 6 -10 12 -8 11 -10 -7 -10 -17 0
-23 6 -23 21 0 11 -4 18 -9 14 -5 -3 -12 -1 -16 5 -10 16 31 12 45 -5z m338
-10 c-3 -32 -20 -32 -35 0 -10 23 -9 25 13 25 19 0 23 -5 22 -25z m-151 -17
c-3 -8 -6 -5 -6 6 -1 11 2 17 5 13 3 -3 4 -12 1 -19z m-2081 -15 c-2 -3 -22
-9 -43 -13 -39 -9 -93 -2 -75 9 12 7 125 11 118 4z m223 -2 c9 -6 2 -10 -23
-13 -50 -6 -47 10 4 21 3 0 11 -3 19 -8z m199 0 c8 -5 0 -8 -23 -9 -21 -1 -33
3 -30 8 7 12 35 13 53 1z m408 -6 c18 -13 17 -14 -18 -15 -36 0 -47 8 -31 23
10 11 28 8 49 -8z m794 -5 c0 -6 -39 -10 -97 -10 -67 0 -93 3 -83 10 20 13
180 13 180 0z m190 0 c11 -7 3 -10 -30 -10 -33 0 -41 3 -30 10 8 5 22 10 30
10 8 0 22 -5 30 -10z m140 0 c11 -7 7 -10 -17 -10 -17 0 -35 5 -38 10 -8 13
35 13 55 0z m140 0 c0 -5 -5 -10 -11 -10 -5 0 -7 5 -4 10 3 6 8 10 11 10 2 0
4 -4 4 -10z m120 1 c0 -5 -7 -11 -15 -15 -15 -5 -20 5 -8 17 9 10 23 9 23 -2z
m-43 -17 c-3 -3 -12 -4 -19 -1 -8 3 -5 6 6 6 11 1 17 -2 13 -5z m-2430 -10
c-3 -3 -12 -4 -19 -1 -8 3 -5 6 6 6 11 1 17 -2 13 -5z m70 0 c-3 -3 -12 -4
-19 -1 -8 3 -5 6 6 6 11 1 17 -2 13 -5z m286 -91 c-13 -2 -35 -2 -50 0 -16 2
-5 4 22 4 28 0 40 -2 28 -4z m1161 -3 c-11 -4 -36 -5 -55 0 -31 7 -29 8 21 8
39 1 49 -2 34 -8z m-454 -45 c0 -5 -5 -3 -10 5 -5 8 -10 20 -10 25 0 6 5 3 10
-5 5 -8 10 -19 10 -25z m-1431 -41 c10 -27 10 -38 1 -49 -12 -14 -44 -9 -35 5
3 5 1 11 -5 15 -7 4 -5 14 5 27 11 16 12 25 3 35 -8 10 -7 12 4 8 8 -3 20 -22
27 -41z m344 -1 c-13 -2 -33 -2 -45 0 -13 2 -3 4 22 4 25 0 35 -2 23 -4z m140
0 c-7 -2 -19 -2 -25 0 -7 3 -2 5 12 5 14 0 19 -2 13 -5z m-626 -49 c-3 -3 -12
-4 -19 -1 -8 3 -5 6 6 6 11 1 17 -2 13 -5z m256 -1 c-7 -2 -19 -2 -25 0 -7 3
-2 5 12 5 14 0 19 -2 13 -5z m307 -33 c0 -5 -7 -7 -15 -4 -8 4 -15 8 -15 10 0
2 7 4 15 4 8 0 15 -4 15 -10z m-72 -37 c-10 -2 -28 -2 -40 0 -13 2 -5 4 17 4
22 1 32 -1 23 -4z m2345 -20 c-7 -2 -21 -2 -30 0 -10 3 -4 5 12 5 17 0 24 -2
18 -5z m234 1 c-3 -3 -12 -4 -19 -1 -8 3 -5 6 6 6 11 1 17 -2 13 -5z m-2854
-31 c-7 -2 -19 -2 -25 0 -7 3 -2 5 12 5 14 0 19 -2 13 -5z m130 0 c-7 -2 -19
-2 -25 0 -7 3 -2 5 12 5 14 0 19 -2 13 -5z m680 -10 c-7 -2 -19 -2 -25 0 -7 3
-2 5 12 5 14 0 19 -2 13 -5z m-1440 -40 c-7 -2 -19 -2 -25 0 -7 3 -2 5 12 5
14 0 19 -2 13 -5z m54 1 c-3 -3 -12 -4 -19 -1 -8 3 -5 6 6 6 11 1 17 -2 13 -5z
m-347 -62 c0 -8 -11 -11 -29 -10 l-29 2 16 33 16 34 13 -23 c7 -13 12 -29 13
-36z m1068 51 c-10 -2 -26 -2 -35 0 -10 3 -2 5 17 5 19 0 27 -2 18 -5z m125 0
c-13 -2 -35 -2 -50 0 -16 2 -5 4 22 4 28 0 40 -2 28 -4z m54 1 c-3 -3 -12 -4
-19 -1 -8 3 -5 6 6 6 11 1 17 -2 13 -5z m-877 -19 c14 -8 21 -14 16 -15 -5 0
3 -9 18 -21 26 -20 56 -68 56 -88 0 -5 -9 -9 -19 -8 -11 0 -18 4 -15 9 4 7
-35 33 -40 26 -2 -2 1 -17 5 -34 9 -30 37 -42 50 -21 4 5 12 6 18 3 13 -9 8
-75 -9 -106 -10 -18 -8 -20 25 -20 22 0 34 -4 32 -12 -1 -8 14 -15 38 -19 31
-5 22 -6 -39 -8 -64 -1 -77 2 -73 13 7 17 3 16 -68 -19 -49 -24 -50 -24 -17
-25 17 0 32 5 32 10 0 18 60 11 77 -10 10 -11 22 -20 28 -20 5 0 4 4 -4 9 -18
12 -4 33 17 27 10 -3 49 -6 89 -7 46 -1 74 -6 77 -14 5 -15 96 -28 131 -19 14
3 22 11 19 18 -3 6 1 3 10 -8 11 -14 22 -17 43 -11 38 10 132 12 126 3 -2 -5
30 -8 73 -8 65 0 75 2 65 14 -14 17 -1 28 18 17 7 -5 23 -7 35 -4 14 2 11 -1
-9 -11 l-30 -14 30 -3 c17 -1 -1 -5 -40 -8 -38 -4 -107 -4 -151 -1 -59 4 -85
1 -94 -8 -9 -10 -9 -16 0 -27 18 -22 166 -21 174 0 3 8 13 15 23 15 15 0 15
-2 -3 -15 -10 -8 -14 -15 -9 -15 45 -5 72 -4 67 4 -3 5 5 7 16 4 12 -4 20 -2
16 3 -3 5 -1 9 5 9 6 0 15 -9 21 -20 10 -18 7 -20 -27 -22 -37 -1 -37 -1 -5
-5 17 -2 32 -9 32 -14 0 -6 -6 -7 -12 -4 -7 4 -4 -1 6 -9 17 -14 19 -28 18
-97 -2 -85 -11 -109 -40 -104 -9 1 -11 0 -4 -2 17 -6 15 -21 -8 -50 -31 -40
-12 -42 21 -3 15 19 29 33 29 30 1 -3 4 -48 7 -101 l5 -97 -46 -3 -46 -4 0 46
c0 25 -3 81 -7 124 l-6 77 -81 -4 c-88 -5 -131 -22 -131 -53 0 -11 -7 -20 -15
-20 -21 0 -15 125 6 141 13 10 13 12 -1 18 -8 3 -15 18 -16 33 l-1 28 -8 -25
c-4 -14 -8 -46 -9 -71 -2 -80 -11 -109 -38 -115 -17 -5 -22 -11 -18 -23 6 -20
-22 -36 -82 -46 -36 -7 -37 -6 -18 9 11 8 15 16 8 16 -6 0 -13 15 -15 33 l-3
32 -68 -2 c-42 -2 -66 1 -62 7 3 6 13 10 21 10 10 0 12 5 8 13 -5 7 -1 6 10
-3 16 -13 20 -12 31 3 6 9 14 16 16 14 3 -1 -2 5 -11 13 -8 8 -16 35 -17 59
-1 24 -9 54 -17 66 -14 21 -14 24 1 29 9 4 13 9 10 12 -3 4 -36 -4 -72 -17
-51 -19 -65 -28 -62 -41 3 -9 -2 -19 -10 -22 -11 -4 -13 -2 -9 9 3 8 1 15 -4
15 -6 0 -10 -8 -10 -18 0 -23 -29 -64 -41 -57 -16 11 -9 -7 9 -21 14 -11 15
-15 3 -26 -10 -9 -12 -10 -7 0 5 8 -4 18 -25 30 -64 35 -80 54 -81 100 0 29
-5 42 -14 42 -8 0 -14 -7 -14 -16 0 -8 -4 -12 -10 -9 -5 3 -7 0 -4 -8 3 -8 -3
-17 -13 -21 -9 -4 -14 -4 -10 0 4 4 -9 18 -28 31 -19 13 -35 28 -35 33 0 5
-20 30 -44 57 -39 42 -42 49 -27 60 13 11 13 12 1 8 -9 -3 -24 2 -35 11 -18
14 -18 15 -2 10 10 -3 30 -6 43 -6 19 0 24 -5 24 -24 0 -14 5 -37 10 -52 l11
-27 44 48 c25 26 45 50 46 54 0 3 2 20 3 37 2 18 11 47 20 65 9 17 16 42 16
53 0 36 -35 81 -84 106 -25 14 -46 28 -46 32 0 9 55 48 68 48 5 0 12 7 16 15
7 20 92 20 126 0z m1885 -6 c17 -1 5 -5 -25 -8 -63 -7 -65 -7 -55 9 4 7 17 9
29 6 11 -3 35 -7 51 -7z m1242 -5 c-3 -3 -12 -4 -19 -1 -8 3 -5 6 6 6 11 1 17
-2 13 -5z m-1953 -28 c37 -17 48 -36 21 -36 -8 0 -15 4 -15 9 0 12 -53 33 -76
31 -11 -1 -28 -1 -39 0 -19 1 -20 2 -1 9 29 11 69 7 110 -13z m-837 8 c-3 -3
-12 -4 -19 -1 -8 3 -5 6 6 6 11 1 17 -2 13 -5z m816 -39 c-1 -5 3 -16 9 -22 7
-9 7 -13 -1 -13 -8 0 -9 -6 -3 -17 7 -16 8 -33 3 -74 0 -5 -6 -7 -11 -4 -6 3
-13 -1 -16 -9 -3 -9 -12 -16 -20 -16 -19 0 -18 10 3 25 11 8 13 14 5 19 -7 4
-12 2 -12 -4 0 -8 -9 -10 -25 -6 -14 4 -25 2 -25 -4 0 -5 -4 -10 -10 -10 -5 0
-10 14 -10 31 0 21 4 28 13 23 8 -6 8 -3 -2 9 -18 23 -6 65 22 77 28 12 83 8
80 -5z m717 11 c0 -2 -7 -7 -16 -10 -8 -3 -12 -2 -9 4 6 10 25 14 25 6z
m-1315 -16 c3 -6 -1 -7 -9 -4 -18 7 -21 14 -7 14 6 0 13 -4 16 -10z m2350 -1
c72 -20 135 -106 135 -185 0 -12 -7 -37 -15 -57 -8 -19 -11 -38 -7 -43 4 -5 3
-6 -2 -1 -5 4 -18 -5 -28 -20 -11 -17 -18 -22 -18 -13 -1 12 -3 11 -11 -3 -5
-9 -7 -22 -4 -27 3 -6 1 -10 -4 -10 -6 0 -11 -7 -11 -15 0 -8 -5 -15 -10 -15
-6 0 -8 15 -4 39 7 44 -3 55 -53 57 -21 0 -33 -4 -33 -12 0 -18 47 -29 63 -16
9 8 12 4 13 -13 1 -17 -5 -25 -25 -31 -14 -4 -32 -6 -38 -5 -7 1 -13 -3 -13
-8 0 -7 -8 -7 -25 -1 -14 5 -25 7 -25 4 0 -2 -10 1 -22 8 -13 7 -26 11 -30 10
-5 -1 -8 2 -8 7 0 5 -15 7 -32 5 -18 -2 -26 0 -18 4 8 4 16 13 18 20 1 8 -2
11 -7 7 -17 -10 -51 71 -51 121 0 94 56 165 149 190 59 16 68 16 116 3z m358
4 c-7 -2 -19 -2 -25 0 -7 3 -2 5 12 5 14 0 19 -2 13 -5z m110 0 c-7 -2 -21 -2
-30 0 -10 3 -4 5 12 5 17 0 24 -2 18 -5z m64 1 c-3 -3 -12 -4 -19 -1 -8 3 -5
6 6 6 11 1 17 -2 13 -5z m-3120 -20 c-3 -3 -12 -4 -19 -1 -8 3 -5 6 6 6 11 1
17 -2 13 -5z m576 -1 c-7 -2 -19 -2 -25 0 -7 3 -2 5 12 5 14 0 19 -2 13 -5z
m1045 2 c-2 -1 -13 -8 -25 -14 -19 -9 -23 -9 -23 2 0 9 10 15 25 15 14 0 25
-2 23 -3z m-1115 -12 c-13 -2 -33 -2 -45 0 -13 2 -3 4 22 4 25 0 35 -2 23 -4z
m177 -1 c0 -5 -3 -12 -7 -16 -5 -4 -8 -13 -8 -19 0 -7 -10 -13 -22 -15 -12 -2
-29 -15 -38 -29 l-17 -25 46 3 c25 2 46 1 46 -2 0 -11 -77 -15 -101 -7 -16 6
-32 -2 -73 -37 -29 -25 -57 -45 -61 -45 -4 0 13 17 39 38 l46 37 -74 3 c-51 2
-78 8 -87 18 -10 13 -9 13 13 5 39 -15 161 -17 166 -3 2 7 10 12 17 12 8 0 34
18 59 39 l46 40 -43 4 -42 4 48 1 c26 1 47 -2 47 -6z m-250 -17 c0 -8 -2 -15
-4 -15 -2 0 -6 7 -10 15 -3 8 -1 15 4 15 6 0 10 -7 10 -15z m1085 6 c-3 -5 0
-13 6 -17 12 -7 -6 -24 -26 -24 -5 0 -3 5 5 10 13 9 13 10 0 10 -9 0 -20 -4
-25 -9 -16 -14 -63 -22 -70 -11 -3 5 2 10 12 10 10 0 34 9 53 19 39 22 54 26
45 12z m310 -30 c-6 -5 -25 10 -25 20 0 5 6 4 14 -3 8 -7 12 -15 11 -17z
m1028 12 c-13 -2 -33 -2 -45 0 -13 2 -3 4 22 4 25 0 35 -2 23 -4z m140 0 c-7
-2 -21 -2 -30 0 -10 3 -4 5 12 5 17 0 24 -2 18 -5z m-3503 -27 c0 -13 -7 -26
-15 -30 -9 -3 -15 -18 -15 -35 0 -16 -6 -32 -12 -34 -7 -3 -2 -6 12 -7 22 -2
22 -3 -8 -11 -21 -6 -30 -14 -26 -22 4 -7 4 -9 -1 -5 -4 4 -25 -2 -46 -13 -48
-24 -52 -11 -6 14 27 15 33 24 30 41 -4 17 1 25 16 29 11 2 22 0 25 -7 2 -6 5
-4 5 5 1 19 -26 45 -36 35 -3 -3 -1 -6 5 -6 7 0 12 -4 12 -10 0 -5 -7 -10 -15
-10 -19 0 -21 60 -3 78 7 7 27 12 45 12 28 0 33 -4 33 -24z m460 4 c-13 -9
-13 -10 0 -10 13 0 13 -1 0 -10 -13 -9 -13 -11 0 -20 11 -7 7 -10 -19 -10 -33
0 -34 1 -15 15 19 15 19 15 -1 9 -18 -5 -17 -3 4 15 13 12 28 21 35 21 6 0 4
-5 -4 -10z m117 4 c-3 -3 -12 -4 -19 -1 -8 3 -5 6 6 6 11 1 17 -2 13 -5z m136
-1 c-13 -2 -35 -2 -50 0 -16 2 -5 4 22 4 28 0 40 -2 28 -4z m114 1 c-3 -3 -12
-4 -19 -1 -8 3 -5 6 6 6 11 1 17 -2 13 -5z m106 -1 c-18 -2 -48 -2 -65 0 -18
2 -4 4 32 4 36 0 50 -2 33 -4z m-1108 -13 c3 -6 -1 -7 -9 -4 -18 7 -21 14 -7
14 6 0 13 -4 16 -10z m817 -20 c-12 -11 -34 -20 -49 -19 -25 0 -26 1 -8 9 11
5 14 9 8 9 -7 1 -13 6 -13 11 0 6 19 10 42 10 l42 0 -22 -20z m298 8 c0 -9 3
-9 12 0 15 15 55 16 64 1 4 -7 0 -9 -14 -5 -11 4 -23 2 -27 -4 -9 -15 -58 -12
-81 5 -18 14 -17 14 14 15 18 0 32 -5 32 -12z m640 -2 c0 -11 -19 -15 -25 -6
-3 5 1 10 9 10 9 0 16 -2 16 -4z m600 -6 c0 -5 -7 -7 -15 -4 -8 4 -15 8 -15
10 0 2 7 4 15 4 8 0 15 -4 15 -10z m-2352 -7 c-10 -2 -26 -2 -35 0 -10 3 -2 5
17 5 19 0 27 -2 18 -5z m182 -7 c0 -2 -7 -7 -16 -10 -8 -3 -12 -2 -9 4 6 10
25 14 25 6z m368 -3 c-16 -2 -40 -2 -55 0 -16 2 -3 4 27 4 30 0 43 -2 28 -4z
m155 0 c-7 -2 -21 -2 -30 0 -10 3 -4 5 12 5 17 0 24 -2 18 -5z m2222 -3 c-3
-5 -12 -7 -20 -3 -21 7 -19 13 6 13 11 0 18 -4 14 -10z m515 -5 c10 -13 9 -15
-9 -15 -12 0 -21 6 -21 15 0 8 4 15 9 15 5 0 14 -7 21 -15z m-2437 -2 c-7 -2
-21 -2 -30 0 -10 3 -4 5 12 5 17 0 24 -2 18 -5z m2469 -11 c-10 -3 -10 -7 -1
-18 10 -12 6 -13 -22 -8 -41 8 -50 14 -20 14 12 0 24 7 27 15 4 8 11 12 17 8
8 -5 7 -8 -1 -11z m-3274 -31 c1 -47 -16 -72 -51 -76 -24 -3 -25 -1 -15 21 12
26 23 30 34 13 4 -8 9 -7 15 2 4 7 1 21 -7 33 -18 27 -18 34 4 39 9 3 18 5 18
6 1 0 2 -17 2 -38z m707 28 c15 0 13 -3 -10 -12 l-30 -11 35 -7 c19 -3 -32 -6
-115 -6 -82 1 -116 2 -75 4 89 4 123 10 115 22 -7 12 15 21 40 16 11 -3 29 -5
40 -6z m225 -9 c0 -5 -4 -10 -10 -10 -5 0 -10 5 -10 10 0 6 5 10 10 10 6 0 10
-4 10 -10z m221 0 c12 0 19 -7 19 -20 0 -18 -7 -20 -67 -20 -52 1 -64 3 -50
11 9 6 15 14 12 20 -3 5 0 6 8 3 8 -3 18 0 22 6 4 6 14 9 22 6 8 -3 23 -6 34
-6z m60 -47 c-11 -21 -20 -34 -21 -30 0 14 32 78 37 73 2 -2 -5 -21 -16 -43z
m239 33 c0 -2 -9 -6 -20 -9 -11 -3 -18 -1 -14 4 5 9 34 13 34 5z m630 -6 c0
-5 -7 -10 -15 -10 -8 0 -15 5 -15 10 0 6 7 10 15 10 8 0 15 -4 15 -10z m-1707
-7 c-7 -2 -21 -2 -30 0 -10 3 -4 5 12 5 17 0 24 -2 18 -5z m440 0 c-13 -2 -35
-2 -50 0 -16 2 -5 4 22 4 28 0 40 -2 28 -4z m100 -10 c-7 -2 -21 -2 -30 0 -10
3 -4 5 12 5 17 0 24 -2 18 -5z m828 -10 c12 -14 12 -16 -1 -11 -8 3 -23 1 -33
-4 -25 -13 -32 -4 -12 16 21 20 29 20 46 -1z m-1051 2 c0 -2 -9 -9 -20 -15
-16 -9 -18 -8 -14 5 5 13 34 22 34 10z m1405 -11 c34 -22 31 -31 -10 -30 -35
1 -52 26 -17 26 14 0 15 2 2 10 -8 5 -11 10 -7 10 4 0 19 -7 32 -16z m-1308 0
c-3 -3 -12 -4 -19 -1 -8 3 -5 6 6 6 11 1 17 -2 13 -5z m58 -4 c-3 -5 -11 -10
-16 -10 -6 0 -7 5 -4 10 3 6 11 10 16 10 6 0 7 -4 4 -10z m-1112 -7 c-13 -2
-35 -2 -50 0 -16 2 -5 4 22 4 28 0 40 -2 28 -4z m1616 -7 c17 -20 11 -85 -12
-128 -23 -41 -36 -39 -62 13 -12 22 -12 29 -1 38 7 6 16 8 19 4 4 -3 8 5 9 18
1 13 2 31 4 39 1 8 2 18 3 23 2 12 28 8 40 -7z m127 7 c-10 -10 -76 -11 -76
-1 0 4 19 8 42 8 23 0 38 -3 34 -7z m-628 -18 c3 -3 -75 -5 -174 -5 -98 0
-174 4 -167 8 13 8 332 6 341 -3z m692 5 c13 -9 13 -10 0 -9 -8 0 -24 4 -35 9
l-20 9 20 0 c11 0 27 -4 35 -9z m130 0 c0 -5 -4 -10 -10 -10 -5 0 -10 5 -10
10 0 6 5 10 10 10 6 0 10 -4 10 -10z m366 2 c-3 -5 -29 -9 -58 -10 -38 -1 -48
1 -33 8 25 11 98 13 91 2z m-1046 -14 c0 -10 -51 -10 -67 0 -6 4 6 7 28 7 21
0 39 -3 39 -7z m95 2 c4 -6 -7 -10 -27 -9 -31 1 -32 1 -8 9 14 4 26 8 27 9 1
1 5 -3 8 -9z m1113 3 c-10 -2 -26 -2 -35 0 -10 3 -2 5 17 5 19 0 27 -2 18 -5z
m-1041 -9 c-3 -3 -12 -4 -19 -1 -8 3 -5 6 6 6 11 1 17 -2 13 -5z m-579 -9 c-9
-10 -88 -13 -94 -4 -3 5 18 9 47 9 29 0 50 -2 47 -5z m303 -23 c-7 -2 -18 1
-23 6 -8 8 -4 9 13 5 13 -4 18 -8 10 -11z m202 5 c3 -8 -1 -14 -9 -14 -8 0
-14 6 -14 14 0 7 4 13 9 13 5 0 11 -6 14 -13z m57 -2 c11 -13 15 -13 21 -3 7
10 9 9 9 -4 0 -10 -15 -24 -34 -33 -19 -9 -36 -24 -38 -32 -2 -12 -7 -10 -23
8 -11 13 -13 19 -5 13 12 -9 20 -6 40 12 18 18 21 24 9 24 -9 0 -16 7 -16 15
0 20 21 19 37 0z m-1300 -5 c0 -5 -2 -10 -4 -10 -3 0 -8 5 -11 10 -3 6 -1 10
4 10 6 0 11 -4 11 -10z m1880 -25 c0 -5 -5 -3 -10 5 -5 8 -10 20 -10 25 0 6 5
3 10 -5 5 -8 10 -19 10 -25z m694 15 c-42 -15 -74 -20 -74 -11 0 11 71 30 84
23 5 -3 1 -8 -10 -12z m866 11 c0 -5 -9 -7 -20 -4 -11 3 -20 7 -20 9 0 2 9 4
20 4 11 0 20 -4 20 -9z m-2230 -10 c0 -5 10 -12 23 -14 15 -4 13 -5 -7 -4 -27
2 -52 27 -27 27 6 0 11 -4 11 -9z m1007 -13 c-3 -8 -6 -5 -6 6 -1 11 2 17 5
13 3 -3 4 -12 1 -19z m263 -7 c0 -10 -30 -24 -37 -17 -3 3 -2 9 2 15 8 13 35
15 35 2z m960 -21 c0 -18 -7 -20 -75 -17 -95 3 -99 17 -4 17 60 0 70 2 65 16
-3 8 -2 12 4 9 6 -3 10 -15 10 -25z m-3420 -9 c0 -6 -11 -31 -25 -57 -27 -51
-31 -99 -14 -154 18 -59 18 -76 -2 -88 -15 -10 -19 -9 -20 0 -2 37 -10 165
-11 178 -4 50 4 92 22 110 21 21 50 27 50 11z m2953 2 c-7 -2 -21 -2 -30 0
-10 3 -4 5 12 5 17 0 24 -2 18 -5z m-1140 -16 c3 -8 1 -20 -4 -28 -6 -10 -9
-7 -9 14 0 29 5 35 13 14z m-1913 -7 c0 -5 -2 -10 -4 -10 -3 0 -8 5 -11 10 -3
6 -1 10 4 10 6 0 11 -4 11 -10z m2088 -18 c3 -20 4 -20 22 -2 27 27 48 16 47
-26 -1 -24 -6 -36 -20 -40 -16 -5 -17 -8 -6 -15 9 -5 -2 -6 -26 -3 -26 4 -35
2 -27 -4 11 -7 11 -10 -3 -16 -9 -3 -13 -11 -9 -17 5 -8 3 -9 -5 -5 -7 5 -10
14 -7 21 5 14 -45 29 -54 16 -6 -8 -48 -6 -57 3 -3 3 -1 6 5 6 6 0 9 6 7 13
-8 20 8 36 50 51 22 8 35 15 29 15 -6 1 -30 -6 -53 -14 -44 -15 -49 -11 -26
19 10 13 23 17 49 14 20 -2 36 -1 36 2 0 4 10 6 23 5 14 -1 23 -9 25 -23z
m-775 11 c-7 -2 -21 -2 -30 0 -10 3 -4 5 12 5 17 0 24 -2 18 -5z m2157 3 c0
-3 -4 -8 -10 -11 -5 -3 -10 -1 -10 4 0 6 5 11 10 11 6 0 10 -2 10 -4z m-695
-16 c3 -5 1 -10 -4 -10 -6 0 -11 5 -11 10 0 6 2 10 4 10 3 0 8 -4 11 -10z
m661 -5 c-4 -12 4 -15 39 -15 45 0 45 0 45 -35 l0 -35 -52 -1 c-29 -1 -56 -1
-60 0 -4 0 -4 -7 -1 -16 4 -11 8 -13 11 -5 4 14 102 17 102 2 0 -5 -8 -14 -17
-19 -17 -10 -17 -10 0 -11 13 0 17 -8 17 -35 0 -29 -4 -35 -22 -36 l-23 -2 23
-4 c22 -4 22 -7 22 -147 0 -107 -3 -146 -13 -155 -10 -7 -17 -7 -24 0 -6 6
-36 9 -67 7 -31 -1 -56 -3 -57 -3 0 0 -3 73 -5 163 -4 125 -2 162 7 162 7 0 4
7 -7 15 -17 13 -17 14 -2 15 9 0 21 -8 27 -17 5 -10 13 -15 17 -11 10 11 -16
38 -37 38 -14 0 -19 7 -19 25 0 20 5 25 28 26 l27 2 -27 4 c-59 9 -24 18 56
15 l83 -3 -4 25 c-5 25 -8 26 -82 28 -42 1 -59 3 -38 5 21 2 41 11 44 19 3 8
7 14 10 14 3 0 3 -7 -1 -15z m-1129 -42 c-3 -10 -5 -4 -5 12 0 17 2 24 5 18 2
-7 2 -21 0 -30z m726 30 c-7 -2 -21 -2 -30 0 -10 3 -4 5 12 5 17 0 24 -2 18
-5z m88 -6 c-5 -5 -24 -4 -42 1 l-34 10 42 -1 c23 -1 38 -6 34 -10z m-2933
-28 c2 -27 0 -30 -13 -19 -11 9 -12 17 -4 31 13 25 14 24 17 -12z m2972 11 c0
-24 -15 -27 -24 -4 -3 8 -2 12 4 9 6 -3 10 -1 10 4 0 6 2 11 5 11 3 0 5 -9 5
-20z m57 14 c-3 -3 -12 -4 -19 -1 -8 3 -5 6 6 6 11 1 17 -2 13 -5z m-1917 -20
c0 -2 -7 -4 -15 -4 -8 0 -15 4 -15 10 0 5 7 7 15 4 8 -4 15 -8 15 -10z m2150
-8 c-38 -13 -45 -13 -35 3 3 6 21 11 38 10 l32 0 -35 -13z m-2840 -11 c0 -10
-10 -15 -27 -15 -26 0 -26 1 -7 15 25 19 34 19 34 0z m-378 -17 c7 -13 11 -26
10 -30 -1 -4 11 -17 26 -30 35 -30 91 -141 62 -123 -5 3 -10 1 -10 -4 0 -6 5
-11 11 -11 7 0 9 -10 7 -25 -3 -14 -1 -28 3 -31 5 -3 8 -16 7 -29 -2 -20 -8
-25 -28 -25 -20 0 -22 2 -10 11 12 8 9 9 -10 4 -33 -10 -84 -8 -88 3 -1 5 -24
3 -50 -4 -50 -13 -83 -2 -50 17 9 5 24 16 33 25 13 14 15 13 15 -5 0 -30 12
-26 33 11 15 26 20 29 28 17 8 -11 9 -9 4 7 -6 23 17 88 28 77 18 -17 4 32
-19 68 -22 36 -29 40 -55 37 -16 -3 -29 -1 -29 4 0 4 11 8 25 8 20 0 25 5 25
25 0 31 15 32 32 3z m2758 18 c0 -2 -11 -6 -25 -8 -13 -3 -22 -1 -19 3 5 9 44
13 44 5z m160 -16 c-23 -7 -23 -8 -3 -9 12 -1 24 2 27 7 3 5 81 7 116 2 3 0
-2 -5 -10 -10 -10 -6 -11 -10 -2 -10 18 0 15 -27 -4 -34 -21 -8 -34 1 -34 25
0 10 -4 19 -10 19 -5 0 -10 -5 -10 -10 0 -7 -26 -9 -69 -6 -47 3 -72 0 -75 -7
-3 -8 -8 -7 -15 3 -9 12 -4 16 27 19 37 5 37 5 -13 11 -46 6 -44 7 25 7 51 1
67 -2 50 -7z m-3031 -33 c0 -21 -1 -21 -9 -2 -12 28 -12 37 0 30 6 -3 10 -16
9 -28z m3918 27 c-3 -3 -12 -4 -19 -1 -8 3 -5 6 6 6 11 1 17 -2 13 -5z m-4047
-8 c0 -2 -7 -7 -16 -10 -8 -3 -12 -2 -9 4 6 10 25 14 25 6z m570 -16 c-8 -5
-19 -10 -25 -10 -5 0 -3 5 5 10 8 5 20 10 25 10 6 0 3 -5 -5 -10z m2747 -22
c-3 -7 -5 -2 -5 12 0 14 2 19 5 13 2 -7 2 -19 0 -25z m-1314 -1 c29 0 39 -16
10 -18 -11 0 -13 -3 -5 -6 6 -2 12 -13 12 -23 0 -10 -6 -20 -12 -23 -22 -7
-47 4 -42 18 3 7 -3 26 -13 41 -18 28 -18 28 2 19 11 -5 32 -8 48 -8z m-1808
-7 c-3 -5 -14 -10 -23 -10 -15 0 -15 2 -2 10 20 13 33 13 25 0z m3038 3 c6 -9
-203 -7 -211 2 -3 3 42 5 101 5 58 0 108 -3 110 -7z m-2682 -57 c12 -40 13
-58 5 -67 -8 -9 -8 -10 2 -5 20 12 15 -51 -5 -64 -15 -10 -15 -11 -1 -6 17 5
48 -22 48 -42 0 -7 8 -12 19 -12 14 0 17 -6 14 -25 -5 -22 -9 -24 -59 -23 -49
2 -54 4 -54 24 0 13 8 28 18 33 14 8 14 11 2 12 -8 1 -18 1 -22 0 -5 0 -8 2
-9 7 -11 133 -9 190 6 196 9 3 13 10 10 16 -3 5 -3 10 2 10 4 0 15 -25 24 -54z
m1216 32 c-3 -8 -6 -5 -6 6 -1 11 2 17 5 13 3 -3 4 -12 1 -19z m607 -4 c8 -21
-7 -17 -21 6 -11 16 -10 18 1 14 8 -3 17 -12 20 -20z m-654 1 c-35 -20 -62
-19 -36 0 11 8 29 15 40 15 19 -1 19 -2 -4 -15z m1343 8 c-7 -2 -19 -2 -25 0
-7 3 -2 5 12 5 14 0 19 -2 13 -5z m151 -4 c12 -1 6 -5 -14 -8 -19 -4 -40 -3
-46 1 -6 4 -14 5 -17 1 -4 -3 -7 -1 -7 7 0 9 9 11 31 6 17 -3 41 -7 53 -7z
m-1104 -29 c-7 -13 -6 -20 1 -22 7 -2 5 -9 -5 -17 -14 -12 -16 -11 -16 7 0 11
-7 27 -15 36 -13 13 -13 15 7 18 32 6 40 0 28 -22z m205 11 c-3 -6 -14 -10
-23 -10 -15 1 -15 2 1 6 9 2 17 9 17 15 0 6 3 9 6 5 3 -3 3 -10 -1 -16z m-382
-10 c-2 -6 0 -10 5 -9 14 3 42 -14 36 -23 -3 -5 -10 -7 -15 -4 -5 3 -6 -1 -3
-9 3 -9 10 -13 15 -10 5 3 18 -15 29 -40 10 -25 25 -46 32 -46 9 0 9 -3 -2
-10 -13 -9 -7 -14 13 -11 4 0 7 -4 7 -9 0 -5 -4 -10 -10 -10 -5 0 -10 -22 -10
-50 0 -45 2 -50 23 -51 21 0 21 -1 -3 -11 -14 -6 -31 -10 -39 -9 -7 1 -10 -2
-7 -8 4 -5 2 -12 -4 -16 -5 -3 -12 -28 -16 -56 -4 -27 -11 -52 -17 -56 -6 -4
-8 4 -4 23 21 106 21 104 -2 104 -11 0 -21 5 -21 10 0 6 5 10 10 10 6 0 10 8
10 18 0 14 -3 13 -18 -6 -25 -32 -49 -20 -57 29 -4 22 -5 42 -3 44 3 3 43 11
71 14 4 1 7 8 7 16 0 14 -4 14 -36 0 -42 -17 -47 -18 -40 -6 3 5 -1 11 -9 15
-24 9 -19 74 6 95 12 10 22 29 22 44 0 15 4 27 9 27 5 0 6 5 2 11 -4 7 -1 10
7 7 8 -3 13 -11 12 -17z m-73 0 c2 0 -1 -6 -7 -12 -11 -11 -66 -2 -59 10 4 6
48 7 66 2z m195 -9 c-3 -3 -11 0 -18 7 -9 10 -8 11 6 5 10 -3 15 -9 12 -12z
m-1660 -28 c38 -49 26 -53 -14 -4 -17 22 -28 40 -23 40 5 0 22 -16 37 -36z
m1315 23 c0 -4 4 -6 9 -2 5 3 12 1 16 -5 6 -9 -16 -15 -39 -11 -5 1 -5 -6 -2
-16 5 -12 4 -14 -2 -8 -5 6 -13 20 -16 32 -6 18 -3 22 14 20 11 -1 20 -5 20
-10z m-390 -19 c0 -28 10 -42 33 -51 14 -5 27 -57 14 -57 -9 0 -47 39 -47 48
0 6 -12 19 -27 30 -23 17 -25 22 -14 36 19 23 41 20 41 -6z m2680 7 c0 -8 -7
-15 -15 -15 -16 0 -20 12 -8 23 11 12 23 8 23 -8z m-2420 -33 c0 -7 -4 -10
-10 -7 -5 3 -10 16 -10 28 0 18 2 19 10 7 5 -8 10 -21 10 -28z m475 -2 c5 -17
4 -22 -3 -15 -5 6 -13 21 -17 35 -5 17 -4 22 3 15 5 -5 13 -21 17 -35z m921
31 c-3 -3 -19 -8 -37 -9 -18 -2 -37 -8 -42 -15 -6 -8 -7 -6 -3 6 5 15 1 17
-27 12 -17 -3 -45 -1 -62 4 -23 7 -6 9 73 9 56 0 100 -3 98 -7z m973 -15 c-2
-2 -14 -7 -26 -10 -17 -6 -23 -3 -23 9 0 9 4 14 8 11 4 -2 14 -1 22 4 13 8 29
-5 19 -14z m-655 6 c-6 -4 -14 -19 -17 -34 -5 -20 -3 -28 10 -31 10 -3 -14 -5
-54 -4 -78 2 -85 13 -13 21 25 2 46 5 48 5 1 1 2 7 2 15 0 10 -18 18 -52 24
l-53 10 70 1 c39 0 65 -3 59 -7z m-856 -27 c-3 -3 -9 2 -12 12 -6 14 -5 15 5
6 7 -7 10 -15 7 -18z m-1988 -5 c-6 -11 -13 -20 -16 -20 -2 0 0 9 6 20 6 11
13 20 16 20 2 0 0 -9 -6 -20z m2370 16 c0 -2 -7 -9 -15 -16 -13 -11 -14 -10
-9 4 5 14 24 23 24 12z m76 -23 c73 -13 156 -14 171 -2 12 10 14 10 9 2 -4 -7
-2 -13 3 -13 6 0 11 5 11 11 0 6 7 4 15 -5 8 -8 15 -16 15 -18 0 -2 -77 -3
-170 -4 -94 0 -170 3 -170 7 0 8 37 19 68 19 14 0 22 6 23 18 0 14 2 14 7 2 4
-8 12 -16 18 -17z m259 17 c3 -5 -1 -10 -10 -10 -9 0 -13 5 -10 10 3 6 8 10
10 10 2 0 7 -4 10 -10z m-796 -34 c7 -8 8 -17 3 -20 -6 -3 -12 3 -15 14 -6 24
-4 25 12 6z m-1949 -10 c0 -2 -7 -9 -15 -16 -12 -10 -15 -10 -15 4 0 9 7 16
15 16 8 0 15 -2 15 -4z m896 -61 c0 -30 -4 -51 -10 -48 -5 3 -7 -6 -4 -21 3
-14 1 -29 -3 -32 -5 -3 -9 33 -9 80 0 68 3 84 14 80 9 -3 13 -22 12 -59z
m-835 28 c13 -16 12 -17 -3 -4 -10 7 -18 15 -18 17 0 8 8 3 21 -13z m642 10
c-7 -2 -19 -2 -25 0 -7 3 -2 5 12 5 14 0 19 -2 13 -5z m337 -34 c0 -5 -7 -9
-15 -9 -9 0 -15 9 -15 21 0 18 2 19 15 9 8 -7 15 -16 15 -21z m137 -1 c-3 -7
-5 -2 -5 12 0 14 2 19 5 13 2 -7 2 -19 0 -25z m490 26 c-3 -3 -12 -4 -19 -1
-8 3 -5 6 6 6 11 1 17 -2 13 -5z m263 -4 c0 -5 -4 -10 -10 -10 -5 0 -10 5 -10
10 0 6 5 10 10 10 6 0 10 -4 10 -10z m525 -9 c33 -1 62 -5 65 -8 3 -2 -22 -4
-56 -2 -33 1 -66 -1 -72 -5 -8 -5 -12 1 -12 16 0 13 4 18 8 13 4 -6 34 -12 67
-14z m62 13 c-3 -3 -12 -4 -19 -1 -8 3 -5 6 6 6 11 1 17 -2 13 -5z m-637 -14
c0 -5 -7 -10 -16 -10 -8 0 -12 5 -9 10 3 6 10 10 16 10 5 0 9 -4 9 -10z m-913
-19 c0 -11 -5 -18 -9 -15 -4 3 -5 11 -1 19 7 21 12 19 10 -4z m713 15 c0 -3
-4 -8 -10 -11 -5 -3 -10 -1 -10 4 0 6 5 11 10 11 6 0 10 -2 10 -4z m-1663 -20
c-2 -5 -14 -13 -26 -18 -20 -7 -22 -6 -12 6 9 11 9 15 -1 19 -7 2 -1 4 14 3
16 0 27 -5 25 -10z m40 -18 c-3 -8 -6 -5 -6 6 -1 11 2 17 5 13 3 -3 4 -12 1
-19z m290 -14 c-7 -44 -4 -41 -50 -47 -33 -4 -38 -2 -43 19 -11 45 5 59 75 63
22 1 23 -2 18 -35z m118 -4 c11 0 15 -7 13 -22 -5 -34 -25 -32 -37 3 -13 39
-14 75 -1 42 5 -13 17 -23 25 -23z m75 -10 c0 -40 -15 -54 -26 -25 -8 20 4 65
16 65 6 0 10 -18 10 -40z m525 12 c-7 -7 -55 8 -55 17 0 5 13 4 30 -2 16 -6
27 -13 25 -15z m762 22 c-3 -3 -12 -4 -19 -1 -8 3 -5 6 6 6 11 1 17 -2 13 -5z
m-2147 -49 c14 -18 14 -19 -2 -7 -19 15 -31 2 -22 -22 5 -12 0 -16 -17 -16
-18 0 -20 3 -10 9 10 6 5 11 -19 16 -23 5 -29 10 -19 16 8 5 17 3 22 -4 7 -9
10 -9 14 1 2 6 11 12 19 12 8 0 14 5 14 12 0 6 1 9 3 7 1 -2 9 -13 17 -24z
m1375 5 c8 -13 -5 -13 -25 0 -13 8 -13 10 2 10 9 0 20 -4 23 -10z m1082 -6
c-3 -3 -12 -4 -19 -1 -8 3 -5 6 6 6 11 1 17 -2 13 -5z m-264 -40 c-4 -12 -8
-13 -14 -3 -9 15 -2 32 11 24 5 -3 6 -13 3 -21z m52 8 c-3 -3 -11 0 -18 7 -9
10 -8 11 6 5 10 -3 15 -9 12 -12z m-992 -5 c2 -6 -2 -18 -9 -25 -9 -8 -14 -9
-14 -2 0 6 -4 9 -9 5 -5 -3 -12 -1 -16 4 -3 5 3 14 12 20 24 14 30 13 36 -2z
m-83 -6 c0 -5 -9 -11 -20 -14 -13 -3 -20 0 -20 9 0 8 9 14 20 14 11 0 20 -4
20 -9z m975 -1 c3 -6 -1 -7 -9 -4 -10 4 -16 1 -16 -7 0 -7 -3 -10 -6 -6 -7 7
4 27 16 27 5 0 12 -4 15 -10z m-993 -50 c-9 -16 -18 -25 -20 -20 -2 6 -13 10
-23 10 -29 0 -14 18 24 29 18 5 33 10 34 10 1 1 -6 -12 -15 -29z m1595 12 c14
-9 21 -41 8 -39 -5 1 -10 8 -10 15 0 7 -7 17 -15 22 -8 5 -10 10 -5 10 6 0 15
-4 22 -8z m-1507 -12 c0 -5 -11 -10 -25 -10 -14 0 -25 5 -25 10 0 6 11 10 25
10 14 0 25 -4 25 -10z m944 -8 c3 -5 -1 -9 -9 -9 -8 0 -12 4 -9 9 3 4 7 8 9 8
2 0 6 -4 9 -8z m551 -17 c-3 -19 1 -25 16 -25 10 0 19 -4 19 -10 0 -5 -16 -10
-35 -10 -19 0 -35 5 -35 10 0 6 5 10 11 10 8 0 8 4 -1 15 -13 16 -6 35 14 35
8 0 12 -10 11 -25z m-122 -19 c14 -11 15 -15 4 -19 -15 -5 -37 10 -37 25 0 12
12 9 33 -6z m-1918 -6 c-3 -5 -12 -10 -20 -10 -8 0 -23 -10 -35 -22 -15 -16
-20 -18 -20 -7 0 9 15 23 33 32 38 19 51 21 42 7z m460 0 c-3 -5 -1 -10 4 -10
6 0 11 -5 11 -10 0 -6 -8 -5 -20 2 -14 9 -16 14 -7 20 16 10 19 10 12 -2z
m124 -16 c2 -2 -12 -4 -32 -4 -20 0 -37 4 -37 10 0 8 58 3 69 -6z m-573 -84
c0 -33 3 -60 8 -60 5 0 3 -7 -4 -16 -12 -13 -16 -10 -31 23 -11 23 -16 49 -13
66 4 18 1 27 -8 28 -7 1 1 5 17 9 17 4 31 8 31 9 1 0 1 -26 0 -59z m491 43
c10 -10 17 -17 15 -16 -3 1 -14 -3 -25 -8 -17 -10 -19 -9 -15 9 3 12 1 23 -6
26 -8 3 -8 5 0 5 7 1 20 -7 31 -16z m53 -3 c0 -5 -5 -10 -11 -10 -5 0 -7 5 -4
10 3 6 8 10 11 10 2 0 4 -4 4 -10z m30 0 c0 -5 -4 -10 -10 -10 -5 0 -10 5 -10
10 0 6 5 10 10 10 6 0 10 -4 10 -10z m858 -25 c-3 -3 -9 2 -12 12 -6 14 -5 15
5 6 7 -7 10 -15 7 -18z m-888 -26 c0 -6 -20 -9 -50 -7 -65 4 -65 18 0 18 28 0
50 -5 50 -11z m128 -6 c-10 -2 -26 -2 -35 0 -10 3 -2 5 17 5 19 0 27 -2 18 -5z
m793 -26 c-10 -9 -11 -8 -5 6 3 10 9 15 12 12 3 -3 0 -11 -7 -18z m-1754 -34
c-3 -10 -5 -4 -5 12 0 17 2 24 5 18 2 -7 2 -21 0 -30z m63 27 c0 -5 5 -9 12
-7 7 1 13 -8 14 -20 1 -13 -3 -23 -7 -23 -5 0 -9 -7 -9 -15 0 -8 -9 -15 -20
-15 -11 0 -23 -7 -27 -16 -5 -13 -7 -13 -14 -2 -7 10 -9 9 -9 -4 0 -10 -5 -18
-11 -18 -16 0 -4 57 16 76 8 9 15 20 15 25 0 5 3 8 8 8 19 -3 25 2 12 11 -13
8 -12 10 3 10 9 0 17 -4 17 -10z m68 -8 c2 -7 -3 -12 -12 -12 -9 0 -16 7 -16
16 0 17 22 14 28 -4z m88 -7 c3 -14 3 -32 0 -41 -5 -13 -1 -16 23 -12 22 3 28
1 24 -10 -3 -7 -17 -12 -32 -10 -14 1 -33 -2 -41 -6 -8 -5 -12 -6 -8 -1 4 4
-11 17 -33 28 -22 11 -37 22 -34 25 3 3 11 0 17 -6 13 -13 38 2 38 22 0 14 20
36 32 36 4 0 10 -11 14 -25z m-686 -56 c0 -15 -18 -19 -65 -12 -47 6 -47 6
-19 18 29 12 84 8 84 -6z m784 -5 c8 -21 3 -26 -18 -18 -9 3 -16 12 -16 20 0
19 26 18 34 -2z m2583 -226 c-3 -7 -5 -2 -5 12 0 14 2 19 5 13 2 -7 2 -19 0
-25z m-3384 -52 c4 -10 1 -13 -8 -9 -8 3 -12 9 -9 14 7 12 11 11 17 -5z m1
-55 c-2 -3 -12 3 -22 13 -16 17 -16 18 5 5 12 -7 20 -15 17 -18z m-20 -10 c17
-19 17 -19 -1 -15 -11 3 -20 12 -20 20 0 18 0 18 21 -5z m3263 13 c-3 -3 -12
-4 -19 -1 -8 3 -5 6 6 6 11 1 17 -2 13 -5z m-3292 -34 c13 -15 15 -24 8 -31
-14 -14 -33 -3 -33 17 0 8 -4 14 -10 14 -5 0 -10 5 -10 10 0 17 26 11 45 -10z
m3529 -67 c-10 -7 -23 -13 -30 -13 -7 0 -14 -5 -16 -11 -6 -17 -56 0 -54 19 1
12 13 18 46 22 60 7 79 1 54 -17z"/>
<path d="M4803 1973 c9 -2 23 -2 30 0 6 3 -1 5 -18 5 -16 0 -22 -2 -12 -5z"/>
<path d="M4858 1973 c7 -3 16 -2 19 1 4 3 -2 6 -13 5 -11 0 -14 -3 -6 -6z"/>
<path d="M4858 1752 c-10 -2 -18 -10 -18 -18 0 -13 21 -20 45 -14 6 1 15 3 22
3 8 0 9 6 4 15 -9 17 -25 21 -53 14z"/>
<path d="M5060 1620 c-10 -7 11 -10 65 -10 45 0 74 4 67 8 -18 12 -114 13
-132 2z"/>
<path d="M4855 1599 c-7 -20 -1 -101 12 -164 11 -59 22 9 16 100 -6 84 -15
105 -28 64z"/>
<path d="M4990 1593 c0 -5 7 -16 14 -25 15 -20 92 -25 98 -7 2 7 9 5 17 -5 12
-14 8 -16 -45 -17 -33 -1 -51 -3 -41 -6 11 -3 16 -11 13 -19 -7 -18 8 -18 45
2 17 8 38 14 47 12 24 -5 -98 -46 -125 -42 -13 2 -23 -1 -23 -8 0 -6 -10 -22
-22 -35 l-21 -23 40 17 c23 10 39 22 35 27 -3 5 2 7 11 3 9 -3 23 1 31 9 10 9
24 12 40 8 17 -4 27 -1 35 13 11 17 12 17 26 -1 14 -19 15 -19 15 8 0 15 -4
25 -9 22 -5 -3 -12 1 -15 10 -5 14 -1 16 23 11 21 -4 37 0 55 14 14 11 26 16
26 10 0 -6 11 -6 32 0 18 5 46 10 63 11 50 2 -153 16 -262 17 -57 0 -103 -2
-103 -6z"/>
<path d="M5310 1555 c-7 -8 -25 -14 -43 -12 -41 3 -43 -12 -8 -53 25 -29 29
-31 24 -12 -6 26 23 66 44 58 7 -3 13 1 13 9 0 21 -16 27 -30 10z"/>
<path d="M4767 1534 c-16 -21 -16 -24 -2 -24 16 0 30 22 23 39 -1 5 -11 -2
-21 -15z"/>
<path d="M5413 1533 c9 -2 17 -9 17 -14 0 -6 4 -8 8 -5 4 2 14 1 21 -4 10 -6
9 -9 -7 -14 -13 -4 -19 -13 -15 -22 4 -10 20 -14 62 -12 l56 2 -52 3 c-29 2
-53 8 -53 13 0 5 9 7 19 5 14 -2 18 1 15 10 -4 9 1 13 15 12 11 -1 23 -7 25
-14 3 -7 18 -13 33 -12 15 0 22 3 16 6 -30 11 -9 23 45 25 36 1 17 4 -53 8
-60 4 -123 10 -140 12 -16 3 -22 3 -12 1z"/>
<path d="M5295 1510 c-3 -6 1 -7 9 -4 18 7 21 14 7 14 -6 0 -13 -4 -16 -10z"/>
<path d="M5218 1493 c7 -3 16 -2 19 1 4 3 -2 6 -13 5 -11 0 -14 -3 -6 -6z"/>
<path d="M5610 1490 c-22 -7 -21 -8 13 -9 20 -1 37 4 37 9 0 11 -14 11 -50 0z"/>
<path d="M5348 1473 c-10 -2 -18 -9 -18 -14 0 -6 8 -5 20 1 11 6 20 13 20 15
0 3 -1 4 -2 4 -2 -1 -11 -3 -20 -6z"/>
<path d="M5668 1463 c7 -3 16 -2 19 1 4 3 -2 6 -13 5 -11 0 -14 -3 -6 -6z"/>
<path d="M5708 1453 c6 -2 18 -2 25 0 6 3 1 5 -13 5 -14 0 -19 -2 -12 -5z"/>
<path d="M5170 1429 c0 -5 9 -9 20 -9 11 0 20 4 20 8 0 4 -9 8 -20 9 -11 1
-20 -2 -20 -8z"/>
<path d="M5357 1419 c12 -12 25 -20 28 -17 3 3 -7 13 -22 23 l-28 17 22 -23z"/>
<path d="M5507 1401 c28 -4 77 -4 110 0 44 4 31 6 -52 6 -76 0 -94 -2 -58 -6z"/>
<path d="M5628 1343 c18 -2 45 -2 60 0 15 2 0 4 -33 4 -33 0 -45 -2 -27 -4z"/>
<path d="M6071 1574 c0 -11 3 -14 6 -6 3 7 2 16 -1 19 -3 4 -6 -2 -5 -13z"/>
<path d="M7933 1353 c15 -2 39 -2 55 0 15 2 2 4 -28 4 -30 0 -43 -2 -27 -4z"/>
<path d="M7883 1293 c9 -2 23 -2 30 0 6 3 -1 5 -18 5 -16 0 -22 -2 -12 -5z"/>
<path d="M7948 1293 c6 -2 18 -2 25 0 6 3 1 5 -13 5 -14 0 -19 -2 -12 -5z"/>
<path d="M7907 1233 c18 -2 50 -2 70 0 21 2 7 4 -32 4 -38 0 -55 -2 -38 -4z"/>
<path d="M7948 1173 c6 -2 18 -2 25 0 6 3 1 5 -13 5 -14 0 -19 -2 -12 -5z"/>
<path d="M6475 1350 c10 -11 20 -20 23 -20 3 0 -3 9 -13 20 -10 11 -20 20 -23
20 -3 0 3 -9 13 -20z"/>
<path d="M6445 1110 c-3 -5 -1 -10 4 -10 6 0 11 5 11 10 0 6 -2 10 -4 10 -3 0
-8 -4 -11 -10z"/>
<path d="M5270 860 c0 -5 5 -10 10 -10 6 0 10 5 10 10 0 6 -4 10 -10 10 -5 0
-10 -4 -10 -10z"/>
<path d="M5040 732 c0 -5 7 -9 15 -9 8 0 12 4 9 9 -3 4 -9 8 -15 8 -5 0 -9 -4
-9 -8z"/>
<path d="M5174 728 c-4 -7 -4 -10 1 -6 4 4 15 2 24 -5 14 -11 14 -10 2 6 -16
20 -18 21 -27 5z"/>
<path d="M1304 4022 c-6 -4 -13 -37 -16 -74 -3 -60 -2 -68 14 -68 11 0 18 7
18 20 0 11 4 20 9 20 5 0 13 -9 16 -20 7 -22 13 -24 34 -11 10 7 11 13 1 31
-9 16 -9 25 -1 33 15 15 14 50 -1 65 -13 13 -57 16 -74 4z m46 -41 c0 -6 -4
-13 -10 -16 -5 -3 -10 1 -10 9 0 9 5 16 10 16 6 0 10 -4 10 -9z"/>
<path d="M1406 3999 c-3 -17 -6 -51 -6 -75 l0 -44 50 0 c43 0 50 3 50 20 0 16
-7 20 -31 20 -17 0 -28 4 -24 10 3 6 15 10 26 10 10 0 19 7 19 15 0 10 -10 15
-27 15 -33 0 -20 17 17 22 14 2 26 11 28 21 3 14 -4 17 -46 17 -47 0 -50 -1
-56 -31z"/>
<path d="M1533 4022 c-7 -4 -15 -38 -19 -75 l-7 -67 26 0 c39 0 56 10 72 41
19 37 19 74 -1 93 -16 17 -51 21 -71 8z m47 -50 c0 -10 -7 -27 -15 -38 -13
-18 -14 -17 -15 19 0 26 4 37 15 37 8 0 15 -8 15 -18z"/>
<path d="M1711 4011 c-23 -23 -18 -56 10 -72 28 -14 23 -30 -6 -23 -19 5 -25
2 -25 -10 0 -19 47 -33 69 -19 25 16 26 60 2 73 -12 6 -20 18 -20 28 1 16 2
16 6 0 8 -30 35 -22 31 10 -4 34 -39 41 -67 13z"/>
<path d="M1796 4014 c-3 -9 -6 -37 -6 -64 0 -55 15 -73 57 -68 22 2 31 11 40
38 l12 35 0 -37 c1 -31 5 -38 21 -38 14 0 20 7 20 23 l0 22 19 -24 c22 -29 45
-20 37 15 -4 14 -1 34 5 45 8 16 8 28 0 46 -9 20 -17 24 -49 21 -31 -2 -38 -7
-41 -28 l-4 -25 -6 25 c-4 14 -15 26 -24 28 -13 3 -17 -4 -17 -30 0 -18 -3
-43 -6 -55 -11 -41 -24 -24 -24 32 0 40 -4 55 -14 55 -8 0 -17 -7 -20 -16z
m174 -28 c0 -2 -7 -9 -15 -16 -12 -10 -15 -10 -15 4 0 9 7 16 15 16 8 0 15 -2
15 -4z"/>
<path d="M2040 4010 c-23 -23 -28 -98 -8 -118 19 -19 55 -14 72 10 l16 22 0
-22 c0 -21 4 -23 52 -20 41 2 54 7 56 21 3 14 -4 17 -34 17 -38 0 -38 15 0 22
25 4 23 22 -4 26 -31 5 -24 22 10 22 24 0 30 4 30 21 0 18 -5 20 -47 17 l-48
-3 -5 -50 c-3 -33 -7 -44 -12 -32 -4 9 -16 17 -27 17 -21 0 -35 -25 -25 -43 5
-9 4 -9 -5 -1 -7 7 -9 22 -5 38 6 27 24 46 24 27 0 -6 9 -11 20 -11 23 0 27
29 8 48 -18 18 -45 15 -68 -8z"/>
<path d="M2329 3983 c-31 -72 -35 -103 -15 -103 10 0 25 7 34 16 14 15 17 15
27 0 13 -17 45 -22 45 -7 0 22 -24 117 -33 129 -18 24 -38 12 -58 -35z"/>
<path d="M2448 4023 c-15 -4 -18 -16 -18 -74 0 -53 3 -69 14 -69 8 0 17 9 21
20 3 11 18 25 33 32 18 9 28 22 30 41 6 48 -23 65 -80 50z m42 -48 c0 -8 -4
-15 -10 -15 -5 0 -10 7 -10 15 0 8 5 15 10 15 6 0 10 -7 10 -15z"/>
<path d="M2563 4020 c-21 -8 -23 -16 -23 -75 0 -58 2 -65 20 -65 12 0 20 7 20
18 0 9 14 25 30 34 39 22 46 42 26 73 -17 26 -36 30 -73 15z m45 -42 c-6 -18
-28 -21 -28 -4 0 9 7 16 16 16 9 0 14 -5 12 -12z"/>
<path d="M2682 3978 c-35 -96 -36 -98 -12 -98 12 0 29 8 38 17 16 16 17 16 20
0 2 -9 13 -17 24 -17 19 0 20 4 14 50 -10 72 -22 100 -45 100 -14 0 -25 -14
-39 -52z"/>
<path d="M2797 4023 c-3 -5 -8 -38 -12 -75 -7 -65 -6 -68 14 -68 14 0 21 6 21
20 0 26 17 26 25 -1 10 -30 30 -16 28 19 -2 17 2 34 7 37 14 9 13 48 -2 63
-13 13 -74 17 -81 5z m53 -42 c0 -5 -7 -11 -15 -15 -9 -3 -15 0 -15 9 0 8 7
15 15 15 8 0 15 -4 15 -9z"/>
<path d="M2907 4023 c-4 -3 -7 -37 -7 -75 l0 -68 50 0 c43 0 50 3 50 20 0 16
-7 20 -30 20 -16 0 -30 5 -30 10 0 6 11 10 25 10 16 0 25 6 25 15 0 9 -9 15
-25 15 -14 0 -25 5 -25 10 0 6 14 10 30 10 23 0 30 4 30 20 0 17 -7 20 -43 20
-24 0 -47 -3 -50 -7z"/>
<path d="M3010 3955 l0 -75 45 0 c38 0 45 3 45 20 0 15 -7 20 -25 20 -24 0
-25 3 -25 55 0 48 -2 55 -20 55 -18 0 -20 -7 -20 -75z"/>
<path d="M1016 3172 c-3 -5 -8 -90 -12 -190 l-7 -182 49 0 c27 0 79 3 117 7
l67 6 0 48 0 49 -66 0 -66 0 3 133 4 132 -42 3 c-22 2 -44 -1 -47 -6z"/>
<path d="M1755 3156 c-8 -11 -26 -50 -41 -85 l-28 -64 -19 69 c-11 38 -24 75
-29 82 -6 6 -30 12 -53 12 l-43 0 -6 -117 c-3 -65 -8 -148 -11 -185 l-5 -68
50 0 c27 0 51 5 51 10 1 6 3 15 4 20 1 6 3 22 4 38 l2 27 14 -33 c20 -45 52
-41 81 12 l22 39 -2 -54 -1 -54 48 -3 c33 -2 47 1 47 10 4 107 -3 335 -11 344
-19 23 -59 23 -74 0z"/>
<path d="M1877 3133 c-4 -26 -9 -112 -13 -190 l-7 -143 52 0 51 0 1 73 c0 39
2 83 3 97 1 14 4 66 7 115 l4 90 -46 3 -46 3 -6 -48z m27 12 c-4 -8 -8 -15
-10 -15 -2 0 -4 7 -4 15 0 8 4 15 10 15 5 0 7 -7 4 -15z"/>
<path d="M2380 3171 l-85 -6 -6 -45 c-3 -25 -9 -108 -13 -184 l-7 -139 123 7
c67 4 125 11 128 17 4 5 5 20 4 32 -1 12 -3 28 -3 35 -1 8 -23 12 -76 12 -67
0 -75 2 -75 19 0 20 25 31 75 31 44 0 57 12 53 51 l-3 34 -57 -3 c-52 -3 -58
-2 -58 16 0 23 18 32 65 32 18 0 47 3 64 6 30 6 32 9 29 48 -3 39 -4 41 -38
42 -19 0 -73 -2 -120 -5z"/>
<path d="M2660 3171 l-85 -6 -6 -52 c-4 -29 -8 -110 -10 -180 l-4 -128 50 -3
c28 -1 84 1 125 5 80 9 89 16 76 69 -6 23 -10 24 -81 24 -67 0 -75 2 -75 19 0
20 25 31 75 31 45 0 57 12 52 51 l-4 34 -56 -3 c-51 -3 -57 -1 -57 16 0 23 18
32 65 32 18 0 47 3 64 6 30 6 32 9 29 48 -3 39 -4 41 -38 42 -19 0 -73 -2
-120 -5z"/>
<path d="M2932 3169 c-35 -3 -67 -10 -71 -15 -10 -11 -34 -331 -26 -345 4 -5
24 -9 45 -9 l39 0 3 58 c4 75 22 75 62 0 17 -32 36 -58 41 -58 6 0 24 11 40
24 l30 24 -27 55 c-24 49 -25 57 -12 68 63 52 54 180 -14 195 -15 3 -31 7 -37
8 -5 1 -38 -1 -73 -5z m75 -96 c6 -16 -41 -63 -62 -63 -22 0 -20 56 3 69 22
13 54 10 59 -6z"/>
<path d="M1256 3123 c-25 -184 -17 -277 27 -308 27 -19 97 -19 142 -1 55 23
71 69 79 224 l7 132 -45 0 c-30 0 -46 -4 -47 -12 -10 -189 -17 -240 -31 -255
-10 -9 -23 -13 -34 -9 -15 6 -16 19 -11 141 l7 135 -44 0 -43 0 -7 -47z"/>
<path d="M1996 3098 c-3 -40 -9 -124 -12 -185 l-7 -113 52 0 51 0 1 93 0 92
36 -92 36 -93 44 0 c26 0 45 5 48 13 2 6 5 90 7 185 l3 172 -42 0 -41 0 -7
-66 -8 -66 -26 63 -27 64 -50 3 -51 3 -7 -73z"/>
<path d="M3191 3144 c-35 -29 -53 -81 -42 -121 4 -17 28 -43 59 -67 51 -38 66
-69 38 -79 -7 -3 -26 1 -41 9 -37 19 -52 18 -65 -5 -18 -35 -11 -49 35 -66 54
-21 126 -16 155 10 29 26 44 84 31 117 -5 15 -33 44 -60 65 -39 29 -50 44 -48
62 3 37 27 39 27 2 0 -30 1 -31 45 -31 l45 0 0 39 c0 24 -8 48 -21 65 -18 22
-28 26 -74 26 -43 0 -60 -5 -84 -26z"/>
<path d="M450 2412 c-20 -10 -47 -37 -65 -66 -38 -63 -48 -172 -20 -230 44
-91 166 -87 225 8 21 35 22 38 5 56 -25 27 -33 25 -69 -16 -36 -41 -61 -39
-71 6 -14 63 27 188 58 177 13 -5 13 -7 3 -49 -6 -26 -4 -28 24 -29 16 -1 36
-2 43 -3 22 -4 37 16 37 51 0 92 -83 139 -170 95z"/>
<path d="M717 2410 c-93 -74 -104 -300 -17 -345 104 -54 200 42 200 198 0 62
-17 121 -41 143 -11 9 -40 19 -66 21 -39 4 -53 1 -76 -17z m89 -105 c4 -27 1
-68 -7 -103 -11 -46 -18 -57 -34 -57 -18 0 -20 8 -23 67 -5 115 48 193 64 93z"/>
<path d="M974 2422 c-29 -3 -32 -6 -38 -50 -4 -26 -9 -109 -13 -184 l-6 -138
46 0 c26 0 47 1 47 3 1 1 3 38 6 82 3 44 7 81 9 83 1 1 16 -35 32 -80 l30 -83
47 -3 46 -3 0 58 c0 32 3 115 7 184 l6 127 -41 4 c-47 4 -51 -3 -53 -92 l0
-55 -14 37 c-39 106 -50 116 -111 110z"/>
<path d="M1330 2424 c-34 -14 -81 -71 -100 -121 -34 -92 -21 -184 34 -230 58
-48 153 -18 196 62 12 22 11 28 -5 45 -23 26 -42 25 -50 0 -4 -11 -17 -28 -31
-36 -37 -25 -54 -4 -54 65 0 65 30 141 56 141 14 0 15 -7 10 -39 l-6 -39 39
-4 c57 -5 61 -2 61 52 0 67 -29 101 -90 106 -25 2 -52 1 -60 -2z"/>
<path d="M1615 2421 l-90 -6 -6 -55 c-4 -30 -10 -112 -13 -182 l-6 -128 62 1
c35 1 92 4 128 8 64 6 65 6 66 36 1 52 -3 55 -82 55 -67 0 -74 2 -74 19 0 16
9 21 48 26 81 11 83 13 80 53 l-3 37 -58 -3 c-57 -4 -59 -3 -55 20 3 21 10 24
72 30 38 4 73 11 78 16 5 5 8 25 6 43 -4 39 -4 39 -153 30z"/>
<path d="M1884 2420 c-33 -4 -65 -10 -71 -13 -6 -4 -13 -55 -17 -114 -4 -60
-9 -138 -13 -175 l-6 -68 46 0 46 0 3 58 c4 75 23 75 63 0 17 -32 35 -58 40
-58 6 0 24 11 40 24 l30 25 -27 52 c-27 52 -28 53 -9 73 41 45 52 97 31 150
-16 43 -62 56 -156 46z m73 -96 c6 -17 -37 -64 -58 -64 -14 0 -19 7 -19 28 0
15 6 34 12 40 15 15 60 12 65 -4z"/>
<path d="M2183 2423 l-103 -4 0 -51 0 -51 40 6 40 5 0 -139 0 -139 44 0 43 0
6 83 c4 45 7 110 7 145 l0 62 40 0 c37 0 39 2 46 34 8 44 0 57 -34 54 -15 -1
-73 -4 -129 -5z"/>
<path d="M2610 2417 c-57 -29 -102 -187 -78 -275 15 -54 58 -92 105 -92 92 0
145 77 146 209 0 82 -16 128 -55 155 -27 19 -84 20 -118 3z m79 -146 c-1 -80
-9 -111 -32 -125 -13 -8 -20 -8 -28 4 -13 20 -4 129 16 175 13 32 17 35 30 25
11 -9 15 -31 14 -79z"/>
<path d="M3189 2423 l-97 -4 -6 -31 c-13 -67 -11 -71 41 -65 l46 5 -6 -139 -7
-139 49 0 49 0 7 145 7 145 39 0 39 0 0 45 c0 45 0 45 -32 43 -18 -1 -76 -4
-129 -5z"/>
<path d="M3491 2421 l-95 -6 -8 -30 c-4 -16 -11 -99 -14 -182 l-7 -153 46 0
47 0 0 54 c0 30 5 58 10 61 6 4 35 9 65 12 l55 6 0 45 0 45 -60 -6 -60 -7 0
29 c0 32 2 33 103 46 l48 6 -3 42 c-3 48 4 46 -127 38z"/>
<path d="M3646 2348 c-3 -46 -8 -132 -12 -191 l-6 -108 53 3 54 3 1 60 c1 33
3 103 4 155 2 52 5 84 7 71 4 -21 9 -23 49 -18 l44 4 -7 -138 -6 -139 50 0 50
0 1 93 c1 50 5 116 8 145 l6 52 39 0 c39 0 39 0 39 40 0 24 -5 43 -13 45 -7 3
-67 2 -135 -2 -67 -5 -122 -5 -122 -1 0 5 -22 8 -49 8 l-49 0 -6 -82z m28 47
c-4 -8 -8 -15 -10 -15 -2 0 -4 7 -4 15 0 8 4 15 10 15 5 0 7 -7 4 -15z"/>
<path d="M2816 2373 c-34 -246 -12 -323 92 -323 116 0 146 47 157 243 l7 127
-45 0 -44 0 -7 -46 c-3 -26 -6 -75 -6 -110 0 -71 -12 -112 -36 -121 -37 -14
-42 23 -28 195 l6 82 -44 0 -45 0 -7 -47z"/>
<path d="M8792 2050 c0 -14 2 -19 5 -12 2 6 2 18 0 25 -3 6 -5 1 -5 -13z"/>
<path d="M4423 1373 c15 -2 37 -2 50 0 12 2 0 4 -28 4 -27 0 -38 -2 -22 -4z"/>
<path d="M671 1318 c-9 -32 -9 -32 -10 -5 -1 22 -6 27 -27 27 -25 0 -25 -1
-23 -73 3 -124 7 -137 39 -137 20 0 30 6 35 23 l8 22 4 -22 c3 -17 11 -23 31
-23 26 0 28 3 50 102 17 79 19 104 9 110 -21 13 -41 4 -48 -22 l-6 -25 -4 25
c-3 17 -11 26 -26 28 -18 3 -24 -4 -32 -30z"/>
<path d="M820 1323 c0 -16 -3 -65 -7 -110 l-6 -83 31 0 c29 0 31 2 34 42 2 31
8 44 21 46 14 3 17 -4 17 -42 0 -44 1 -46 30 -46 l30 0 0 110 c0 110 0 110
-24 110 -20 0 -25 -6 -31 -40 -5 -30 -11 -40 -26 -40 -17 0 -18 5 -13 40 6 40
6 40 -25 40 -27 0 -31 -3 -31 -27z"/>
<path d="M1062 1341 c-8 -4 -29 -53 -48 -107 l-34 -99 27 -3 c20 -3 32 3 42
17 18 27 51 28 51 1 0 -16 7 -20 30 -20 17 0 30 5 30 13 0 27 -31 169 -40 188
-11 20 -36 25 -58 10z m24 -118 c-10 -10 -19 5 -10 18 6 11 8 11 12 0 2 -7 1
-15 -2 -18z m49 -53 c3 -5 1 -10 -4 -10 -6 0 -11 5 -11 10 0 6 2 10 4 10 3 0
8 -4 11 -10z"/>
<path d="M1164 1336 c-11 -29 0 -51 24 -48 21 3 22 0 22 -77 0 -78 1 -81 24
-81 20 0 24 6 30 46 3 26 6 64 6 85 0 35 3 39 25 39 20 0 25 5 25 25 0 24 -2
25 -75 25 -57 0 -77 -4 -81 -14z"/>
<path d="M1455 1325 c-42 -41 -34 -73 29 -118 28 -20 12 -39 -21 -26 -20 7
-28 6 -35 -3 -12 -20 -10 -26 11 -38 31 -16 79 -12 101 10 31 31 25 65 -15 97
-34 27 -46 53 -25 53 6 0 10 -7 10 -15 0 -9 9 -15 25 -15 20 0 25 5 25 24 0
55 -63 74 -105 31z"/>
<path d="M1576 1273 c-11 -138 -10 -143 24 -143 28 0 30 2 30 39 0 26 5 41 16
45 24 9 24 9 24 -39 0 -43 1 -45 30 -45 l30 0 0 110 c0 110 0 110 -24 110 -20
0 -25 -6 -31 -40 -5 -30 -11 -40 -26 -40 -17 0 -18 5 -13 40 6 39 6 40 -23 40
l-30 0 -7 -77z"/>
<path d="M1774 1325 c-21 -33 -37 -103 -29 -135 15 -58 70 -78 115 -42 40 33
48 143 12 185 -23 26 -78 22 -98 -8z m66 -66 c0 -45 -16 -83 -31 -74 -12 8
-12 55 2 93 14 41 29 31 29 -19z"/>
<path d="M1916 1328 c-11 -41 -7 -173 6 -186 14 -14 72 -16 98 -2 26 14 40 63
40 141 0 66 -1 69 -24 69 -23 0 -24 -4 -31 -80 -6 -70 -9 -80 -27 -80 -18 0
-19 5 -12 80 l7 80 -26 0 c-17 0 -26 -7 -31 -22z"/>
<path d="M2076 1304 c-3 -26 -6 -75 -6 -110 l0 -64 65 0 65 0 0 36 c0 34 -1
35 -32 32 l-33 -3 -3 78 c-3 73 -4 77 -26 77 -20 0 -24 -6 -30 -46z"/>
<path d="M2243 1343 c-19 -4 -23 -11 -23 -41 0 -20 -3 -67 -7 -104 l-6 -68 41
0 c75 0 132 78 116 159 -11 51 -48 68 -121 54z m64 -94 c-10 -76 -45 -80 -39
-5 3 38 7 46 24 46 18 0 20 -5 15 -41z"/>
<path d="M2488 1343 c-23 -6 -23 -10 8 -90 15 -42 23 -79 20 -95 -5 -26 -3
-28 24 -28 26 0 30 3 30 29 0 16 13 62 29 102 31 78 31 89 1 89 -13 0 -25 -14
-37 -42 l-19 -41 -13 41 c-8 23 -17 41 -20 41 -3 -1 -14 -3 -23 -6z"/>
<path d="M2666 1319 c-34 -40 -38 -137 -6 -169 59 -59 141 19 127 122 -11 80
-73 104 -121 47z m64 -61 c0 -62 -14 -92 -30 -68 -17 25 4 120 26 120 2 0 4
-24 4 -52z"/>
<path d="M2806 1319 c-12 -62 -7 -157 10 -173 21 -22 77 -20 105 3 22 17 24
29 28 111 3 91 3 92 -20 88 -19 -2 -24 -10 -27 -38 -6 -95 -13 -121 -30 -118
-14 3 -16 15 -13 81 3 76 2 77 -22 77 -19 0 -26 -6 -31 -31z"/>
<path d="M3121 1318 c-9 -32 -9 -32 -10 -5 -1 22 -6 27 -26 27 -24 0 -25 -3
-25 -59 0 -32 3 -79 6 -105 6 -42 9 -46 34 -46 20 0 30 6 35 23 l8 22 4 -22
c3 -17 11 -23 31 -23 26 0 28 3 49 102 13 56 21 103 20 105 -2 1 -14 4 -27 5
-18 2 -25 -3 -30 -22 l-7 -25 -4 25 c-3 17 -11 26 -26 28 -18 3 -24 -4 -32
-30z"/>
<path d="M3289 1344 c-18 -5 -29 -67 -29 -161 l0 -53 59 0 c75 0 91 6 91 36 0
22 -4 24 -45 24 -53 0 -60 16 -10 26 28 5 35 11 35 30 0 21 -5 24 -35 24 -19
0 -35 5 -35 10 0 6 12 10 28 10 51 0 73 11 70 34 -3 18 -10 21 -58 23 -30 0
-62 -1 -71 -3z"/>
<path d="M3480 1305 c-28 -66 -50 -133 -50 -155 0 -27 45 -27 60 0 6 11 20 20
30 20 13 0 20 -7 20 -20 0 -16 7 -20 30 -20 35 0 35 0 15 103 -19 97 -29 117
-61 117 -20 0 -28 -9 -44 -45z m50 -75 c0 -5 -4 -10 -10 -10 -5 0 -10 5 -10
10 0 6 5 10 10 10 6 0 10 -4 10 -10z"/>
<path d="M3648 1343 c-26 -4 -28 -8 -28 -47 0 -24 -3 -71 -7 -105 l-6 -63 29
4 c17 2 30 9 30 18 1 8 2 24 3 35 1 19 3 18 21 -5 11 -14 20 -31 20 -37 0 -18
25 -16 40 2 10 12 10 21 1 43 -10 23 -9 34 4 58 20 39 19 60 -5 84 -19 19 -41
22 -102 13z m62 -56 c0 -14 -20 -37 -32 -37 -13 0 -9 38 5 43 21 9 27 7 27 -6z"/>
</g>
</svg>
